<?xml version="1.0" standalone="no"?>
<!DOCTYPE svg PUBLIC "-//W3C//DTD SVG 1.1//EN" "http://www.w3.org/Graphics/SVG/1.1/DTD/svg11.dtd">
<svg xmlns="http://www.w3.org/2000/svg">
<metadata>Copyright (C) 2024 by original authors @ fontello.com</metadata>
<defs>
<font id="fa-hi-icone" horiz-adv-x="1000" >
<font-face font-family="fa-hi-icone" font-weight="400" font-stretch="normal" units-per-em="1000" ascent="850" descent="-150" />
<missing-glyph horiz-adv-x="1000" />
<glyph glyph-name="activity-1" unicode="&#xe800;" d="M736 455c8 16 2 35-14 42-15 8-34 1-42-14l-61-124c-18-39-74-37-90 3-37 89-162 94-204 7l-61-124c-8-16-2-34 14-42 15-8 34-1 42 14l61 124c18 39 74 37 90-3 37-89 162-94 205-7l60 124z m-50 296c-48 5-108 5-184 5h-4c-76 0-136 0-184-5-48-5-88-16-121-40-21-15-39-33-53-53-25-34-36-73-41-122-5-48-5-108-5-184v-4c0-76 0-136 5-184 5-48 16-88 41-121 14-21 32-39 53-54 33-24 73-35 121-40 48-5 108-5 184-5h4c76 0 136 0 184 5 49 5 88 16 122 40 20 15 38 33 53 54 24 33 35 73 40 121 5 48 5 108 5 184v4c0 76 0 136-5 184-5 49-16 88-40 122-15 20-33 38-53 53-34 24-73 35-122 40z m-457-91c21 15 49 24 92 29 44 5 100 5 179 5 79 0 135 0 179-5 44-5 71-14 92-29 15-11 28-24 39-39 15-21 24-48 29-92 5-44 5-100 5-179 0-79 0-135-5-179-5-43-14-71-29-92-11-15-24-28-39-39-21-15-48-24-92-29-44-5-100-5-179-5-79 0-135 0-179 5-43 5-71 14-92 29-15 11-28 24-39 39-15 21-24 49-29 92-5 44-5 100-5 179 0 79 0 135 5 179 5 44 14 71 29 92 11 15 24 28 39 39z" horiz-adv-x="1000" />

<glyph glyph-name="activity-2" unicode="&#xe801;" d="M625 694c17 0 31 14 31 31 0 17-14 31-31 31l-127 0c-76 0-136 0-184-5-48-5-88-16-121-40-21-15-39-33-53-53-25-34-36-73-41-122-5-48-5-108-5-184v-4c0-76 0-136 5-184 5-48 16-88 41-121 14-21 32-39 53-54 33-24 73-35 121-40 48-5 108-5 184-5h4c76 0 136 0 184 5 49 5 88 16 122 40 20 15 38 33 53 54 24 33 35 73 40 121 5 48 5 108 5 184v127c0 17-14 31-31 31-17 0-31-14-31-31v-125c0-79 0-135-5-179-5-43-14-71-29-92-11-15-24-28-39-39-21-15-48-24-92-29-44-5-100-5-179-5-79 0-135 0-179 5-43 5-71 14-92 29-15 11-28 24-39 39-15 21-24 49-29 92-5 44-5 100-5 179 0 79 0 135 5 179 5 44 14 71 29 92 11 15 24 28 39 39 21 15 49 24 92 29 44 5 100 5 179 5h125z m-361-449c-8-16-2-34 14-42 15-8 34-1 42 14l61 124c18 39 74 37 90-3 37-89 162-94 205-7l60 124c8 16 2 35-14 42-15 8-34 1-42-14l-61-124c-18-39-74-37-90 3-37 89-162 94-204 7l-61-124z m465 438c0-57 47-104 104-104 58 0 105 47 105 104 0 58-47 105-105 105-57 0-104-47-104-105z m63 0c0-23 18-41 41-41 23 0 42 18 42 41 0 23-19 42-42 42-23 0-41-19-41-42z" horiz-adv-x="1000" />

<glyph glyph-name="activity-3" unicode="&#xe802;" d="M736 455c8 16 2 35-14 42-15 8-34 1-42-14l-61-124c-18-39-74-37-90 3-37 89-162 94-204 7l-61-124c-8-16-2-34 14-42 15-8 34-1 42 14l61 124c18 39 74 37 90-3 37-89 162-94 205-7l60 124z m-108 320c-34 3-75 3-126 3h-3c-52 0-93 0-127-3-34-3-63-9-90-23-7-4-14-8-21-12-25-17-45-38-65-67-20-27-40-63-66-108l-2-2c-25-45-46-80-60-111-15-31-23-60-25-90 0-8 0-16 0-24 2-30 10-59 25-90 14-30 35-66 60-111l2-2c26-45 46-81 66-108 20-29 40-50 65-67 7-4 14-8 21-12 27-14 56-20 90-23 34-3 75-3 127-3h3c51 0 92 0 126 3 34 3 63 9 90 23 7 4 14 8 21 12 26 17 45 38 65 67 20 27 40 63 66 108l2 2c26 45 46 81 60 111 15 31 24 60 25 90 0 8 0 16 0 24-1 30-10 59-25 90-14 31-34 66-60 111l-2 2c-26 45-46 81-66 108-20 29-39 50-65 67-7 4-14 8-21 12-27 14-56 20-90 23z m-318-79c18 9 38 14 68 17 30 3 68 3 122 3 54 0 92 0 122-3 30-3 50-8 68-17 5-2 10-5 15-9 17-10 31-25 48-50 18-25 37-58 64-104 27-47 46-80 58-107 13-27 19-47 20-67 0-6 0-12 0-18-1-19-7-39-20-67-12-27-31-60-58-107-27-46-46-79-64-104-17-25-31-40-48-50-5-3-10-6-15-9-18-9-38-14-68-17-30-3-68-3-122-3-54 0-92 0-122 3-30 3-50 8-68 17-5 3-10 6-15 9-16 10-31 25-48 50-18 25-37 58-64 104-26 47-46 80-58 107-13 28-19 48-20 67 0 6 0 12 0 18 1 20 7 40 20 67 12 27 32 60 58 107 27 46 46 79 64 104 17 25 32 40 48 50 5 4 10 7 15 9z" horiz-adv-x="1000" />

<glyph glyph-name="activity-4" unicode="&#xe803;" d="M736 455c8 16 2 35-14 42-15 8-34 1-42-14l-61-124c-18-39-74-37-90 3-37 89-162 94-204 7l-61-124c-8-16-2-34 14-42 15-8 34-1 42 14l61 124c18 39 74 37 90-3 37-89 162-94 205-7l60 124z m-224 352c-8 1-16 1-24 0-30-1-59-10-90-25-30-14-66-34-111-60l-2-2c-45-26-81-46-108-66-28-20-50-39-67-65-4-7-8-14-12-21-14-27-20-56-23-90-3-34-3-75-3-126v-3c0-52 0-93 3-127 3-34 9-63 23-90 4-7 8-14 12-21 17-25 39-45 67-65 27-20 63-40 108-66l2-2c45-26 81-46 111-60 31-15 60-24 90-25 8 0 16 0 24 0 30 1 59 10 90 25 31 14 66 34 111 60l2 2c45 26 81 46 108 66 29 20 50 40 67 65 4 7 8 14 12 21 14 27 20 56 23 90 3 34 3 75 3 127v3c0 51 0 92-3 126-3 34-9 63-23 90-4 7-8 14-12 21-17 26-38 45-67 65-27 20-63 40-108 66l-2 2c-45 26-80 46-111 60-31 15-60 24-90 25z m-21-62c6 0 12 0 18 0 20-1 40-7 67-20 27-12 60-31 107-58 46-27 79-46 104-64 25-17 40-31 50-48 4-5 7-10 9-15 9-18 14-38 17-68 3-30 3-68 3-122 0-54 0-92-3-122-3-30-8-50-17-68-2-5-5-10-9-15-10-16-25-31-50-48-25-18-58-37-104-64-47-26-80-46-107-58-27-13-47-19-67-20-6 0-12 0-18 0-19 1-39 7-67 20-27 12-60 32-107 58-46 27-79 46-104 64-25 17-40 32-50 48-4 5-6 10-9 15-9 18-14 38-17 68-3 30-3 68-3 122 0 54 0 92 3 122 3 30 8 50 17 68 3 5 5 10 9 15 10 17 25 31 50 48 25 18 58 37 104 64 47 27 80 46 107 58 28 13 48 19 67 20z" horiz-adv-x="1000" />

<glyph glyph-name="add-category" unicode="&#xe804;" d="M339 714c-12 1-28 1-46 1h-2c-19 0-34 0-47-1-13-1-26-3-38-8-28-12-50-34-62-62-5-12-7-25-8-38-1-13-1-28-1-47v-2c0-18 0-34 1-46 1-14 3-26 8-38 12-28 34-51 62-62 12-5 25-7 38-8 13-1 28-1 47-1h2c18 0 34 0 46 1 14 1 26 3 38 8 28 11 51 34 62 62 5 12 7 24 8 38 1 12 1 28 1 46v2c0 19 0 34-1 47-1 13-3 26-8 38-11 28-34 50-62 62-12 5-24 7-38 8z m-109-66c3 2 8 3 18 3 11 1 24 1 44 1 20 0 33 0 43-1 10 0 15-1 18-3 13-5 23-15 29-28 1-3 2-8 3-18 0-10 0-24 0-44 0-19 0-33 0-43-1-10-2-15-3-18-6-13-16-23-29-28-3-2-8-3-18-4-10 0-23 0-43 0-20 0-33 0-44 0-10 1-15 2-18 4-13 5-23 15-28 28-1 3-3 8-3 18-1 10-1 24-1 43 0 20 0 34 1 44 0 10 2 15 3 18 5 13 15 23 28 28z m510 35c0 18-14 32-32 32-17 0-31-14-31-32v-93h-94c-17 0-31-14-31-32 0-17 14-31 31-31h94v-94c0-17 14-31 31-31 18 0 32 14 32 31v94h93c18 0 32 14 32 31 0 18-14 32-32 32h-93v93z m-401-386c-12 1-28 1-46 1h-2c-19 0-34 0-47-1-13-1-26-3-38-8-28-11-50-34-62-62-5-12-7-24-8-38-1-12-1-28-1-46v-2c0-19 0-34 1-47 1-13 3-26 8-38 12-28 34-50 62-62 12-5 25-7 38-8 13-1 28-1 47-1h2c18 0 34 0 46 1 14 1 26 3 38 8 28 12 51 34 62 62 5 12 7 25 8 38 1 13 1 28 1 47v2c0 18 0 34-1 46-1 14-3 26-8 38-11 28-34 51-62 62-12 5-24 7-38 8z m-109-65c3 1 8 2 18 3 11 0 24 0 44 0 20 0 33 0 43 0 10-1 15-2 18-3 13-6 23-16 29-29 1-3 2-8 3-18 0-10 0-23 0-43 0-20 0-33 0-44-1-10-2-15-3-18-6-13-16-23-29-28-3-1-8-3-18-3-10-1-23-1-43-1-20 0-33 0-44 1-10 0-15 2-18 3-13 5-23 15-28 28-1 3-3 8-3 18-1 11-1 24-1 44 0 20 0 33 1 43 0 10 2 15 3 18 5 13 15 23 28 29z m526 65c-13 1-28 1-47 1h-2c-18 0-34 0-46-1-14-1-26-3-38-8-28-11-51-34-62-62-5-12-7-24-8-38-1-12-1-28-1-46v-2c0-19 0-34 1-47 1-13 3-26 8-38 11-28 34-50 62-62 12-5 24-7 38-8 12-1 28-1 46-1h2c19 0 34 0 47 1 13 1 26 3 38 8 28 12 50 34 62 62 5 12 7 25 8 38 1 13 1 28 1 47v2c0 18 0 34-1 46-1 14-3 26-8 38-12 28-34 51-62 62-12 5-25 7-38 8z m-109-65c3 1 8 2 18 3 10 0 24 0 43 0 20 0 34 0 44 0 10-1 15-2 18-3 13-6 23-16 28-29 2-3 3-8 3-18 1-10 1-23 1-43 0-20 0-33-1-44 0-10-1-15-3-18-5-13-15-23-28-28-3-1-8-3-18-3-10-1-24-1-44-1-19 0-33 0-43 1-10 0-15 2-18 3-13 5-23 15-28 28-2 3-3 8-4 18 0 11 0 24 0 44 0 20 0 33 0 43 1 10 2 15 4 18 5 13 15 23 28 29z" horiz-adv-x="1000" />

<glyph glyph-name="add-circle" unicode="&#xe805;" d="M531 475c0 17-14 31-31 31-17 0-31-14-31-31v-94h-94c-17 0-31-14-31-31 0-17 14-31 31-31h94v-94c0-17 14-31 31-31 17 0 31 14 31 31v94h94c17 0 31 14 31 31 0 17-14 31-31 31h-94v94z m-31 323c-247 0-448-201-448-448 0-247 201-448 448-448 247 0 448 201 448 448 0 247-201 448-448 448z m-385-448c0 213 172 385 385 385 213 0 385-172 385-385 0-213-172-385-385-385-213 0-385 172-385 385z" horiz-adv-x="1000" />

<glyph glyph-name="add-square" unicode="&#xe806;" d="M531 475c0 17-14 31-31 31-17 0-31-14-31-31v-94h-94c-17 0-31-14-31-31 0-17 14-31 31-31h94v-94c0-17 14-31 31-31 17 0 31 14 31 31v94h94c17 0 31 14 31 31 0 17-14 31-31 31h-94v94z m155 276c-48 5-108 5-184 5h-4c-76 0-136 0-184-5-48-5-88-16-121-40-21-15-39-33-53-53-25-34-36-73-41-122-5-48-5-108-5-184v-4c0-76 0-136 5-184 5-48 16-88 41-121 14-21 32-39 53-54 33-24 73-35 121-40 48-5 108-5 184-5h4c76 0 136 0 184 5 49 5 88 16 122 40 20 15 38 33 53 54 24 33 35 73 40 121 5 48 5 108 5 184v4c0 76 0 136-5 184-5 49-16 88-40 122-15 20-33 38-53 53-34 24-73 35-122 40z m-457-91c21 15 49 24 92 29 44 5 100 5 179 5 79 0 135 0 179-5 44-5 71-14 92-29 15-11 28-24 39-39 15-21 24-48 29-92 5-44 5-100 5-179 0-79 0-135-5-179-5-43-14-71-29-92-11-15-24-28-39-39-21-15-48-24-92-29-44-5-100-5-179-5-79 0-135 0-179 5-43 5-71 14-92 29-15 11-28 24-39 39-15 21-24 49-29 92-5 44-5 100-5 179 0 79 0 135 5 179 5 44 14 71 29 92 11 15 24 28 39 39z" horiz-adv-x="1000" />

<glyph glyph-name="add" unicode="&#xe807;" d="M531 683c0 18-14 32-31 32-17 0-31-14-31-32l0-302h-302c-18 0-32-14-32-31 0-17 14-31 32-31h302v-302c0-18 14-32 31-32 17 0 31 14 31 32v302h302c18 0 32 14 32 31 0 17-14 31-32 31h-302l0 302z" horiz-adv-x="1000" />

<glyph glyph-name="arrow-swap-horizontal" unicode="&#xe808;" d="M364 661c12 12 12 32 0 44-12 13-32 13-44 1l-60-60c-23-22-41-41-55-57-14-17-24-36-27-58-3-27 19-46 41-46h573c17 0 31 14 31 32 0 17-14 31-31 31h-539c0 1 1 1 1 2 11 13 27 29 51 53l59 58z m-156-446c-17 0-31-14-31-32 0-17 14-31 31-31h548c-1 0-1-1-2-2-10-13-27-29-51-53l-58-58c-13-12-13-32 0-44 12-13 31-13 44-1l60 60c22 22 41 41 54 57 14 18 25 36 27 58 1 1 1 2 1 3 2 25-18 43-39 43h-584z" horiz-adv-x="1000" />

<glyph glyph-name="arrow-swap-vertical" unicode="&#xe809;" d="M678 681c-25 2-43-18-43-39v-584c0-17 14-31 32-31 17 0 31 14 31 31l0 548c1-1 1-1 2-2 13-10 29-27 53-51l58-58c12-13 32-13 44 0 13 12 13 31 1 44l-60 60c-22 22-41 41-57 54-17 14-36 25-58 27-1 1-2 1-3 1z m-313-39c0 17-14 31-32 31-17 0-31-14-31-31l0-539c0 0-1 1-2 1-13 11-29 27-53 51l-58 59c-12 12-32 12-44 0-13-12-13-32 0-44l59-60c22-23 41-41 57-55 18-14 36-24 58-27 27-3 46 19 46 41l0 573z" horiz-adv-x="1000" />

<glyph glyph-name="attachment" unicode="&#xe80a;" d="M613 723c26 12 56 16 85 8 65-17 104-84 86-149l-99-368c-17-65-84-104-148-86-65 17-104 84-86 148l39 148c5 17-5 34-22 38-17 5-34-5-38-22l-40-147c-26-99 32-199 130-226 99-26 200 32 226 130l99 369c26 98-32 199-130 226-45 12-91 6-130-13-24-12-45-29-62-50-10-13-8-33 5-44 14-11 33-9 44 5 11 14 25 25 41 33z m-270-259c17 64 84 103 149 85 64-17 103-84 85-148l-39-148c-5-17 5-34 22-38 17-5 34 5 38 22l40 147c26 99-32 200-130 226-98 26-199-32-226-130l-99-369c-26-98 32-199 131-226 45-12 90-6 129 13 24 12 45 29 62 50 11 13 8 33-5 44-13 11-33 9-44-5-11-14-25-25-41-33-25-13-55-16-85-8-65 17-104 84-86 149l99 369z" horiz-adv-x="1000" />

<glyph glyph-name="award-1" unicode="&#xe80b;" d="M584 610c-26 84-142 84-168 0-4-12-14-19-25-19-88 0-120-113-53-163 10-7 14-20 10-32-13-41 4-80 32-101 28-21 70-26 105 0 9 7 21 7 30 0 35-26 77-21 105 0 28 21 45 60 32 101-4 12 0 25 10 32 67 50 35 163-53 163-10 0-21 7-25 19z m-193-81c39 0 73 25 84 62 8 26 42 26 50 0 11-37 45-62 84-62 12 0 21-8 25-20 4-11 1-24-10-31-31-24-43-64-32-101 5-14-1-25-9-32-9-7-20-8-30 0-32 23-74 23-105 0-11-8-22-7-30 0-9 7-14 18-10 32 11 37-1 77-32 101-11 7-14 20-10 31 4 12 13 20 25 20z m109 311c-201 0-365-164-365-365 0-49 10-96 28-138-12-14-24-34-39-60l-76-132c-9-16-18-31-23-43-5-13-11-34 3-53 13-20 36-21 49-21 13 1 30 4 48 8l33 6c19 4 29 6 37 7 4 0 6 0 7-1 0 0 1 0 1 0 0 0 0 0 0 0 0 0 0 0 0 0 0 0 0 0 0 0 1-1 2-3 4-6 3-7 7-18 13-35l11-32c6-18 11-34 18-46 6-12 18-30 42-32 24-2 39 14 47 24 8 10 17 25 26 42l75 129c4 8 9 15 12 22 16-2 33-4 49-4 13 0 26 1 38 2 4-6 7-13 12-20l74-129c10-17 18-32 27-42 8-10 23-26 47-24 24 2 36 20 42 32 6 12 12 28 18 46l10 32c7 17 10 28 14 35 1 3 2 5 3 6 0 0 0 0 0 0 0 0 1 0 1 0l0 0 0 0c0 0 0 0 0 0 0 0 0 0 0 0 1 1 3 1 7 1 8-1 19-3 37-7l33-6c18-4 35-7 49-8 13 0 35 1 49 21 14 19 7 40 2 53-5 12-13 27-23 43l-77 133c-11 20-20 36-30 49 20 45 32 95 32 148 0 201-164 365-365 365z m-302-365c0 167 135 302 302 302 167 0 302-135 302-302 0-50-12-97-33-138-43-83-123-144-218-160-17-3-34-4-51-4-20 0-40 2-59 6-93 18-171 79-212 162-20 40-31 86-31 134z m-21-232c7 13 13 24 18 32 45-69 113-121 193-147l-77-132c-5-10-10-17-13-23-3 6-5 14-9 24l-10 31c-6 16-11 30-16 41-6 13-15 25-29 33-14 9-29 10-43 9-12-1-27-4-43-7l-33-6c-10-2-18-4-25-5 4 6 8 13 13 23l74 127z m426-118c80 24 149 74 196 141 3-7 8-14 13-23l73-127c6-10 10-17 13-23-6 1-15 3-25 5l-32 6c-16 3-31 6-44 7-13 1-28 0-43-9-14-8-22-20-28-33-6-11-11-25-16-41l-11-31c-3-10-6-18-8-24-4 6-8 13-14 23l-74 129z" horiz-adv-x="1000" />

<glyph glyph-name="award-2" unicode="&#xe80c;" d="M500 840c-201 0-365-164-365-365 0-49 10-96 28-138-12-14-24-34-39-60l-76-132c-9-16-18-31-23-43-5-13-11-34 3-53 13-20 36-21 49-21 13 1 30 4 48 8l33 6c19 4 29 6 37 7 4 0 6 0 7-1 0 0 1 0 1 0 0 0 0 0 0 0 0 0 0 0 0 0 0 0 0 0 0 0 1-1 2-3 4-6 3-7 7-18 13-35l11-32c6-18 11-34 18-46 6-12 18-30 42-32 24-2 39 14 47 24 8 10 17 25 26 42l75 129c4 8 9 15 12 22 16-2 33-4 49-4 13 0 26 1 38 2 4-6 7-13 12-20l74-129c10-17 18-32 27-42 8-10 23-26 47-24 24 2 36 20 42 32 6 12 12 28 18 46l10 32c7 17 10 28 14 35 1 3 2 5 3 6 0 0 0 0 0 0 0 0 1 0 1 0l0 0 0 0c0 0 0 0 0 0 0 0 0 0 0 0 1 1 3 1 7 1 8-1 19-3 37-7l33-6c18-4 35-7 49-8 13 0 35 1 49 21 14 19 7 40 2 53-5 12-13 27-23 43l-77 133c-11 20-20 36-30 49 20 45 32 95 32 148 0 201-164 365-365 365z m-302-365c0 167 135 302 302 302 167 0 302-135 302-302 0-50-12-97-33-138-43-83-123-144-218-160-17-3-34-4-51-4-20 0-40 2-59 6-93 18-171 79-212 162-20 40-31 86-31 134z m-21-232c7 13 13 24 18 32 45-69 113-121 193-147l-77-132c-5-10-10-17-13-23-3 6-5 14-9 24l-10 31c-6 16-11 30-16 41-6 13-15 25-29 33-14 9-29 10-43 9-12-1-27-4-43-7l-33-6c-10-2-18-4-25-5 4 6 8 13 13 23l74 127z m426-118c80 24 149 74 196 141 3-7 8-14 13-23l73-127c6-10 10-17 13-23-6 1-15 3-25 5l-32 6c-16 3-31 6-44 7-13 1-28 0-43-9-14-8-22-20-28-33-6-11-11-25-16-41l-11-31c-3-10-6-18-8-24-4 6-8 13-14 23l-74 129z" horiz-adv-x="1000" />

<glyph glyph-name="award-3" unicode="&#xe80d;" d="M500 840c-201 0-365-164-365-365 0-88 32-169 84-232l0-245c0-30 0-56 3-76 3-20 10-45 36-57 25-11 49-1 67 10 17 11 37 28 61 48l41 34c23 19 38 31 50 39 12 8 18 9 23 9 5 0 11-1 23-9 12-8 27-20 50-39l41-34c24-20 44-37 62-48 17-11 41-21 66-10 26 12 33 37 36 57 3 20 3 46 3 76l0 245c52 63 84 144 84 232 0 201-164 365-365 365z m-302-365c0 167 135 302 302 302 167 0 302-135 302-302 0-77-28-146-75-200-56-63-137-102-227-102-90 0-171 39-227 102-47 54-75 123-75 200z m86-544c-3 15-3 36-3 70v182c61-45 137-73 219-73 82 0 158 28 219 73v-182c0-34 0-55-2-70-1-3-1-5-2-7-1 1-4 2-7 4-13 8-30 22-56 44l-40 34c-21 17-39 32-55 43-17 11-36 19-57 19-21 0-39-8-57-19-16-11-34-26-54-43l-41-34c-26-22-43-36-56-44-3-2-5-3-7-4-1 2-1 4-1 7z m430-11c0 0 0 0 0 0 0 0 0 0 0 0z m5 3c0 0 0 0 0 0 0 0 0 0 0 0z m-438 0c0 0 0 0 0 0 0 0 0 0 0 0z m5-3c0 0 0 0 0 0 0 0 0 0 0 0 0 0 0 0 0 0z" horiz-adv-x="1000" />

<glyph glyph-name="award-4" unicode="&#xe80e;" d="M584 610c-26 84-142 84-168 0-4-12-14-19-25-19-88 0-120-113-53-163 10-7 14-20 10-32-13-41 4-80 32-101 28-21 70-26 105 0 9 7 21 7 30 0 35-26 77-21 105 0 28 21 45 60 32 101-4 12 0 25 10 32 67 50 35 163-53 163-10 0-21 7-25 19z m-193-81c39 0 73 25 84 62 8 26 42 26 50 0 11-37 45-62 84-62 12 0 21-8 25-20 4-11 1-24-10-31-31-24-43-64-32-101 5-14-1-25-10-32-8-7-19-8-29 0-32 23-74 23-105 0-11-8-22-7-30 0-9 7-14 18-10 32 11 37-1 77-32 101-11 7-14 20-10 31 4 12 13 20 25 20z m109 311c-201 0-365-164-365-365 0-88 32-169 84-232l0-245c0-30 0-56 3-76 3-20 10-45 36-57 25-11 49-1 67 10 17 11 37 28 61 48l41 34c23 19 38 31 50 39 12 8 18 9 23 9 5 0 11-1 23-9 12-8 27-20 50-39l41-34c24-20 44-37 62-48 17-11 41-21 66-10 26 12 33 37 36 57 3 20 3 46 3 76l0 245c52 63 84 144 84 232 0 201-164 365-365 365z m-302-365c0 167 135 302 302 302 167 0 302-135 302-302 0-77-28-146-75-200-56-63-137-102-227-102-90 0-171 39-227 102-47 54-75 123-75 200z m86-544c-3 15-3 36-3 70v182c61-45 137-73 219-73 82 0 158 28 219 73v-182c0-34 0-55-2-70-1-3-1-5-2-7-1 1-4 2-7 4-13 8-30 22-56 44l-40 34c-21 17-39 32-55 43-17 11-36 19-57 19-21 0-39-8-57-19-16-11-34-26-54-43l-41-34c-26-22-43-36-56-44-3-2-5-3-7-4-1 2-1 4-1 7z m430-11c0 0 0 0 0 0 0 0 0 0 0 0z m5 3c0 0 0 0 0 0 0 0 0 0 0 0z m-438 0c0 0 0 0 0 0 0 0 0 0 0 0z m5-3c0 0 0 0 0 0 0 0 0 0 0 0 0 0 0 0 0 0z" horiz-adv-x="1000" />

<glyph glyph-name="award-5" unicode="&#xe80f;" d="M493 798c-71 0-114 0-150-12-73-23-130-81-154-154l0-1h-13c-154 0-220-196-98-289l1-1 103-73c3-2 7-5 11-7 0 0 0 0 0 0 1-1 1-3 1-4 11-26 32-58 52-78 32-33 66-48 120-71l4-2c23-10 46-19 68-26 10-3 21-6 31-8v-107h-136c-17 0-31-14-31-32 0-17 14-31 31-31h334c17 0 31 14 31 31 0 18-14 32-31 32h-136v107c10 2 21 5 31 8 22 7 45 16 69 26l3 2c54 23 88 38 120 71 20 20 41 52 52 78 0 2 1 3 1 4 4 2 8 5 12 7l102 73 1 1c123 93 56 289-98 289h-12l-1 1c-23 73-81 131-154 154-36 12-79 12-150 12h-14z m-377-406c-75 57-34 177 60 177h3c-2-25-2-54-2-90l0-63c0-26 0-48 1-69l-62 45z m768 0l-62-45c1 21 1 43 1 69l0 63c0 36 0 65-1 90h2c94 0 135-120 60-177z m-522 335c25 8 58 8 138 8 80 0 113 0 138-8 54-18 96-60 114-114 2-5 3-11 4-18 4-25 4-59 4-120v-54c0-69 0-101-8-129-1-4-3-7-4-11-8-19-24-44-38-58-24-24-46-34-104-60-22-9-43-17-62-23-19-6-34-9-44-9-10 0-25 3-44 9-18 6-40 14-61 23-59 26-81 36-105 60-14 14-30 39-38 58-1 4-2 8-4 11-8 28-8 61-8 129v54c0 61 0 95 4 120 1 7 3 13 4 18 18 54 60 96 114 114z" horiz-adv-x="1000" />

<glyph glyph-name="award-6" unicode="&#xe810;" d="M571 537c-22 70-120 70-142 0-2-6-6-9-11-9-74 0-100-95-44-136 4-4 7-10 5-16-11-34 3-66 26-84 24-18 59-22 89 0 3 3 9 3 13 0 29-22 64-18 88 0 23 18 37 50 26 84-1 6 1 12 5 16 56 41 30 136-44 136-5 0-9 3-11 9z m-82-19c4 12 18 12 22 0 10-31 38-52 71-52 3 0 5-1 7-2 1-2 3-4 4-7 2-6 0-12-5-16-25-19-36-53-26-84 2-6 0-12-5-15-2-2-4-2-6-2-2 0-4 0-7 2-26 20-62 20-88 0-3-2-5-2-7-2-2 0-4 0-6 2-4 3-7 9-5 15 10 31 0 65-26 84-5 4-7 10-5 16 1 3 3 5 4 7 2 1 4 2 7 2 33 0 61 21 71 52z m4 280c-71 0-114 0-150-12-73-23-130-81-154-154l0-1h-13c-154 0-220-196-98-289l1-1 103-73c3-2 7-5 11-7 0 0 0 0 0 0 1-1 1-3 1-4 11-26 32-58 52-78 32-33 66-48 120-71l4-2c23-10 46-19 68-26 10-3 21-6 31-8v-107h-136c-17 0-31-14-31-32 0-17 14-31 31-31h334c17 0 31 14 31 31 0 18-14 32-31 32h-136v107c10 2 21 5 31 8 22 7 45 16 69 26l3 2c54 23 88 38 120 71 20 20 41 52 52 78 0 2 1 3 1 4 4 2 8 5 12 7l102 73 1 1c123 93 56 289-98 289h-12l-1 1c-23 73-81 131-154 154-36 12-79 12-150 12h-14z m-377-406c-75 57-34 177 60 177h3c-2-25-2-54-2-90l0-63c0-26 0-48 1-69l-62 45z m768 0l-62-45c1 21 1 43 1 69l0 63c0 36 0 65-1 90h2c94 0 135-120 60-177z m-522 335c25 8 58 8 138 8 80 0 113 0 138-8 54-18 96-60 114-114 2-5 3-11 4-18 4-25 4-59 4-120v-54c0-69 0-101-8-129-1-4-3-7-4-11-8-19-24-44-38-58-24-24-46-34-104-60-22-9-43-17-62-23-19-6-34-9-44-9-10 0-25 3-44 9-18 6-40 14-61 23-59 26-81 36-105 60-14 14-30 39-38 58-1 4-2 8-4 11-8 28-8 61-8 129v54c0 61 0 95 4 120 1 7 3 13 4 18 18 54 60 96 114 114z" horiz-adv-x="1000" />

<glyph glyph-name="backward-5-seconds" unicode="&#xe811;" d="M344 392c0 63 51 114 114 114h157c17 0 31-14 31-31 0-17-14-31-31-31h-157c-28 0-52-24-52-52v-42c0-6 5-10 11-10h166c41 0 73-33 73-73v-42c0-63-51-115-114-115h-167c-17 0-31 14-31 32 0 17 14 31 31 31h167c28 0 52 23 52 52v42c0 5-5 10-11 10h-166c-41 0-73 33-73 73v42z m-239 417c0 17 14 31 31 31 17 0 31-14 31-32l0-82c0-34 0-57 2-74l0-1c19 21 40 40 62 57 75 57 168 90 269 90 247 0 448-201 448-448 0-247-201-448-448-448-247 0-448 201-448 448 0 17 14 31 31 31 18 0 32-14 32-31 0-213 172-385 385-385 213 0 385 172 385 385 0 213-172 385-385 385-87 0-167-28-231-77-21-15-40-33-57-52 1 0 2-1 3-1 17-2 40-2 74-1l83 0c17 0 31-14 31-31 0-17-14-31-31-32l-85 0c-31 0-57 0-78 2-23 3-43 8-61 22-3 2-5 4-8 7-4 4-8 8-12 13-14 18-19 38-22 60-2 21-2 48-2 79l1 85z" horiz-adv-x="1000" />

<glyph glyph-name="backward-10-seconds" unicode="&#xe812;" d="M375 152c-17 0-31 14-31 31v217l-30-30c-12-13-32-13-44 0-13 12-13 32 0 44l41 41c35 36 95 11 95-39v-233c0-17-14-31-31-31z m250 313c-63 0-115-52-115-115v-83c0-64 52-115 115-115 63 0 115 51 115 115v83c0 63-52 115-115 115z m-52-115c0 29 23 52 52 52 29 0 52-23 52-52v-83c0-29-23-52-52-52-29 0-52 23-52 52v83z m-468 459c0 17 14 31 31 31 17 0 31-14 31-32l0-82c0-34 0-57 2-74l0-1c19 21 40 40 62 57 75 57 168 90 269 90 247 0 448-201 448-448 0-247-201-448-448-448-247 0-448 201-448 448 0 17 14 31 31 31 18 0 32-14 32-31 0-213 172-385 385-385 213 0 385 172 385 385 0 213-172 385-385 385-87 0-167-28-231-77-21-15-40-33-57-52 1 0 2-1 3-1 17-2 40-2 74-1l83 0c17 0 31-14 31-31 0-17-14-31-31-32l-85 0c-31 0-57 0-78 2-23 3-43 8-61 22-3 2-5 4-8 7-4 4-8 8-12 13-14 18-19 38-22 60-2 21-2 48-2 79l1 85z" horiz-adv-x="1000" />

<glyph glyph-name="backward" unicode="&#xe813;" d="M528 482c1-4 1-8 1-13 4 3 8 6 13 9 27 19 63 41 110 68l3 2c46 27 82 49 112 63 30 14 58 23 87 20 43-5 82-28 107-63 16-23 23-52 26-86 3-33 3-76 3-130v-4c0-54 0-97-3-130-3-34-10-63-26-86-25-35-64-58-107-63-29-3-57 6-87 20-30 14-66 36-112 63l-3 2c-47 27-83 49-110 68-5 3-9 6-13 9 0-4 0-9-1-13-3-34-9-63-26-86-25-35-64-58-107-63-28-3-56 6-86 20-30 14-67 36-113 63l-3 2c-46 27-83 49-110 68-27 19-48 40-59 66-18 39-18 85 0 124 11 27 32 47 59 66 27 19 64 41 110 68l3 2c46 27 83 49 113 63 30 14 58 23 86 20 43-5 82-28 107-63 17-23 23-52 26-86z m-302 11c48 28 83 48 110 61 27 13 42 16 53 15 25-3 48-16 63-37 6-10 11-25 14-55 3-30 3-70 3-127l0 0c0-56 0-97-3-127-3-30-8-45-14-54-15-21-38-35-63-37-11-2-26 1-53 14-27 13-62 33-110 61-48 28-82 48-106 66-24 17-35 29-39 40-11 23-11 51 0 74 4 11 15 23 39 40 24 18 58 38 106 66z m313-180c-5 12-8 24-8 37v0c0 13 3 26 8 37 5 11 15 23 39 40 25 18 59 38 107 66 48 28 82 48 109 61 27 13 42 16 53 15 25-3 48-16 63-37 6-10 12-25 14-55 3-30 3-71 3-127 0-56 0-97-3-127-2-30-8-45-14-54-15-21-38-35-63-37-11-2-26 1-53 14-27 13-61 33-109 61-48 28-82 48-107 66-24 17-34 29-39 40z" horiz-adv-x="1000" />

<glyph glyph-name="bag-1" unicode="&#xe814;" d="M500 808c-109 0-198-88-198-198v-18c-16-3-30-7-44-14-42-19-78-50-103-89-15-23-24-50-31-82-6-31-12-70-19-120l0-3c-9-64-16-114-18-155-2-41 0-75 13-106 20-52 57-94 105-121 30-17 63-24 104-28 40-3 91-3 156-3h70c65 0 116 0 156 3 41 4 75 11 104 28 48 27 85 69 105 121 13 31 15 65 13 106-2 41-9 91-18 155l0 3c-7 50-13 89-19 120-7 32-16 59-31 82-25 39-61 70-102 89-15 7-29 11-45 14v18c0 110-89 198-198 198z m-167-437c-17 0-31 14-31 31v126c-7-2-13-4-18-7-31-14-58-37-76-65-9-15-16-33-22-62-7-29-12-66-19-117-9-66-16-113-18-151-2-37 1-61 9-80 15-38 42-70 78-90 18-10 41-16 78-19 38-4 86-4 152-4h68c66 0 114 0 152 4 37 3 60 9 78 19 36 20 63 52 78 90 8 19 11 43 9 80-2 38-9 85-18 151-7 51-12 88-18 117-7 29-14 47-23 62-18 28-45 51-75 65-6 3-12 5-19 7v-126c0-17-14-31-31-31-18 0-32 14-32 31v134c-26 2-59 2-101 2h-68c-42 0-75 0-101-2v-134c0-17-14-31-32-31z m203 229c39 0 72 0 99-1v11c0 75-60 136-135 136-75 0-135-61-135-136v-11c27 1 60 1 99 1h72z" horiz-adv-x="1000" />

<glyph glyph-name="bag-2" unicode="&#xe815;" d="M500 840c-129 0-234-102-239-229-1-1-2-1-3-1-42-20-78-51-103-89-6-11-11-21-16-33-16-39-23-91-33-166l-1-7c-9-64-16-114-18-154-2-41 0-76 13-107 20-51 57-94 105-121 30-17 63-24 104-28 40-3 91-3 156-3h70c65 0 116 0 156 3 41 4 75 11 104 28 48 27 85 70 105 121 13 31 15 66 13 107-2 40-9 90-18 154l-1 8c-11 80-18 133-36 173-4 9-8 17-13 25-25 38-61 69-102 89-1 0-3 0-4 1-5 127-110 229-239 229z m-40-209c-56 0-99 0-135-4 13 85 86 150 175 150 89 0 162-65 175-150-35 4-79 4-135 4h-80z m-160-72c33 9 78 10 166 10h68c88 0 133-1 166-10 6-2 11-4 17-6 30-14 55-36 73-64l-22-23c-71-70-121-120-164-153-43-33-75-46-109-46-34 0-66 13-109 46-43 33-93 83-164 153l-16 17c1 1 1 3 2 4 18 29 45 51 76 66 5 2 10 4 16 6z m515-134c6-28 11-64 18-117 9-66 16-113 18-151 2-37-1-61-9-80-15-38-42-70-78-90-18-10-41-16-78-19-38-3-86-3-152-3h-68c-66 0-114 0-152 3-37 3-60 9-78 19-36 20-63 52-78 90-8 19-11 43-9 80 2 38 9 85 18 151 7 47 11 82 17 109 66-66 118-118 164-154 49-37 94-58 147-58 53 0 98 21 147 58 47 36 100 90 168 158l5 4z" horiz-adv-x="1000" />

<glyph glyph-name="bag-3" unicode="&#xe816;" d="M311 414c-12-12-12-32 0-44l17-17c95-95 249-95 344 0l17 17c12 12 12 32 0 44-12 12-32 12-44 0l-17-17c-71-70-185-70-256 0l-17 17c-12 12-32 12-44 0z m189 384c-101 0-185-76-196-174-17-3-32-8-46-14-42-20-78-51-103-89-15-24-24-50-31-82-6-32-12-71-19-121l0-3c-9-64-16-114-18-154-2-41 0-76 13-107 20-51 57-94 105-121 30-17 63-24 104-28 40-3 91-3 156-3h70c65 0 116 0 156 3 41 4 75 11 104 28 48 27 85 70 105 121 13 31 15 66 13 107-2 40-9 90-18 154l0 3c-7 50-13 89-19 121-7 32-16 58-31 82-25 38-61 69-102 89-15 6-30 11-46 14-12 98-96 174-197 174z m-36-167c-37 0-69 0-96-1 14 60 68 105 132 105 64 0 118-45 132-105-27 1-59 1-96 1h-72z m-127-65c30 3 70 3 129 3h68c59 0 99 0 129-3 23-3 40-7 54-13 30-15 57-37 75-66 9-15 16-33 23-62 6-28 11-65 18-117 9-66 16-113 18-151 2-37-1-61-9-80-15-38-42-70-78-90-18-10-41-16-78-19-38-3-86-3-152-3h-68c-66 0-114 0-152 3-37 3-60 9-78 19-36 20-63 52-78 90-8 19-11 43-9 80 2 38 9 85 18 151 7 52 12 89 19 117 6 29 13 47 22 62 18 29 45 51 76 66 13 6 30 10 53 13z" horiz-adv-x="1000" />

<glyph glyph-name="bag-4" unicode="&#xe817;" d="M272 455c-12 13-32 13-44 0-12-12-12-32 0-44l25-25c136-136 358-136 494 0l25 25c12 12 12 32 0 44-12 13-32 13-44 0l-25-25c-112-112-294-112-406 0l-25 25z m228 385c-122 0-222-91-238-209l-27 0c-42 0-76 0-103-3-28-4-54-13-73-35-20-22-26-48-26-77-1-27 3-61 7-102l13-116c10-86 17-154 30-206 13-54 33-97 69-129 36-32 80-47 136-54 54-7 122-7 210-7h4c88 0 156 0 211 7 55 7 99 22 135 54 37 32 56 75 69 129 13 52 20 120 30 206l13 116c4 41 8 75 7 102 0 29-6 55-26 77-19 22-45 31-73 35-27 3-61 3-103 3l-27 0c-16 118-116 209-238 209z m0-63c87 0 160-63 174-146h-348c14 83 87 146 174 146z m-395-226c6 7 14 12 36 15 22 3 52 3 96 3h526c44 0 74 0 96-3 22-3 30-8 36-15 5-6 9-15 10-36 1-23-3-52-8-97l-12-111c-10-88-17-152-29-201-11-47-26-76-49-96-23-21-54-33-102-39-50-6-115-6-205-6-90 0-155 0-205 6-48 6-78 18-102 39-23 20-38 49-49 96-12 49-19 113-29 201l-12 111c-5 45-9 74-8 97 1 21 5 30 10 36z" horiz-adv-x="1000" />

<glyph glyph-name="bag-5" unicode="&#xe818;" d="M500 840c-122 0-222-91-238-209l-27 0c-42 0-76 0-103-3-28-4-54-13-73-35-20-22-26-48-26-77-1-27 3-61 7-102l13-116c10-86 17-154 30-206 13-54 33-97 69-129 36-32 80-47 136-54 54-7 122-7 210-7h4c88 0 156 0 211 7 55 7 99 22 135 54 37 32 56 75 69 129 13 52 20 120 30 206l13 116c4 41 8 75 7 102 0 29-6 55-26 77-19 22-45 31-73 35-27 3-61 3-103 3l-27 0c-16 118-116 209-238 209z m0-63c87 0 160-63 174-146h-348c14 83 87 146 174 146z m-395-226c6 7 14 12 36 15 22 3 52 3 96 3h526c44 0 74 0 96-3 22-3 30-8 36-15 5-6 9-15 10-36 1-23-3-52-8-97l-12-111c-10-88-17-152-29-201-11-47-26-76-49-96-23-21-54-33-102-39-50-6-115-6-205-6-90 0-155 0-205 6-48 6-78 18-102 39-23 20-38 49-49 96-12 49-19 113-29 201l-12 111c-5 45-9 74-8 97 1 21 5 30 10 36z" horiz-adv-x="1000" />

<glyph glyph-name="bag-6" unicode="&#xe819;" d="M500 840c-122 0-222-91-238-209l-27 0c-42 0-76 0-103-3-28-4-54-13-73-35-20-22-26-48-26-77-1-27 3-61 7-102l13-116c10-86 17-154 30-206 13-54 33-97 69-129 36-32 80-47 136-54 54-7 122-7 210-7h4c88 0 156 0 211 7 55 7 99 22 135 54 37 32 56 75 69 129 13 52 20 120 30 206l13 116c4 41 8 75 7 102 0 29-6 55-26 77-19 22-45 31-73 35-27 3-61 3-103 3l-27 0c-16 118-116 209-238 209z m0-63c87 0 160-63 174-146h-348c14 83 87 146 174 146z m-395-226c6 7 14 12 36 15 22 3 52 3 96 3h526c44 0 74 0 96-3 22-3 30-8 36-15 5-6 9-15 10-36 1-23-3-52-8-97l-12-111c-10-88-17-152-29-201-11-47-26-76-49-96-23-21-54-33-102-39-50-6-115-6-205-6-90 0-155 0-205 6-48 6-78 18-102 39-23 20-38 49-49 96-12 49-19 113-29 201l-12 111c-5 45-9 74-8 97 1 21 5 30 10 36z m645-118c0-23-19-41-42-41-23 0-41 18-41 41 0 23 18 42 41 42 23 0 42-19 42-42z m-417 0c0-23-18-41-41-41-23 0-42 18-42 41 0 23 19 42 42 42 23 0 41-19 41-42z" horiz-adv-x="1000" />

<glyph glyph-name="bag-7" unicode="&#xe81a;" d="M333 506c-17 0-31-14-31-31 0-17 14-31 31-31h334c17 0 31 14 31 31 0 17-14 31-31 31h-334z m167 292c-101 0-185-76-196-174-17-3-32-8-46-14-42-20-78-51-103-89-15-24-24-50-31-82-6-32-12-71-19-121l0-3c-9-64-16-114-18-154-2-41 0-76 13-107 20-51 57-94 105-121 30-17 63-24 104-28 40-3 91-3 156-3h70c65 0 116 0 156 3 41 4 75 11 104 28 48 27 85 70 105 121 13 31 15 66 13 107-2 40-9 90-18 154l0 3c-7 50-13 89-19 121-7 32-16 58-31 82-25 38-61 69-102 89-15 6-30 11-46 14-12 98-96 174-197 174z m-36-167c-37 0-69 0-96-1 14 60 68 105 132 105 64 0 118-45 132-105-27 1-59 1-96 1h-72z m-127-65c30 3 70 3 129 3h68c59 0 99 0 129-3 23-3 40-7 54-13 30-15 57-37 75-66 9-15 16-33 23-62 6-28 11-65 18-117 9-66 16-113 18-151 2-37-1-61-9-80-15-38-42-70-78-90-18-10-41-16-78-19-38-3-86-3-152-3h-68c-66 0-114 0-152 3-37 3-60 9-78 19-36 20-63 52-78 90-8 19-11 43-9 80 2 38 9 85 18 151 7 52 12 89 19 117 6 29 13 47 22 62 18 29 45 51 76 66 13 6 30 10 53 13z" horiz-adv-x="1000" />

<glyph glyph-name="bag-8" unicode="&#xe81b;" d="M250 465c-17 0-31-14-31-32 0-17 14-31 31-31h500c17 0 31 14 31 31 0 18-14 32-31 32h-500z m250 375c-122 0-222-91-238-209l-27 0c-42 0-76 0-103-3-28-4-54-13-73-35-20-22-26-48-26-77-1-27 3-61 7-102l13-116c10-86 17-154 30-206 13-54 33-97 69-129 36-32 80-47 136-54 54-7 122-7 210-7h4c88 0 156 0 211 7 55 7 99 22 135 54 37 32 56 75 69 129 13 52 20 120 30 206l13 116c4 41 8 75 7 102 0 29-6 55-26 77-19 22-45 31-73 35-27 3-61 3-103 3l-27 0c-16 118-116 209-238 209z m0-63c87 0 160-63 174-146h-348c14 83 87 146 174 146z m-395-226c6 7 14 12 36 15 22 3 52 3 96 3h526c44 0 74 0 96-3 22-3 30-8 36-15 5-6 9-15 10-36 1-23-3-52-8-97l-12-111c-10-88-17-152-29-201-11-47-26-76-49-96-23-21-54-33-102-39-50-6-115-6-205-6-90 0-155 0-205 6-48 6-78 18-102 39-23 20-38 49-49 96-12 49-19 113-29 201l-12 111c-5 45-9 74-8 97 1 21 5 30 10 36z" horiz-adv-x="1000" />

<glyph glyph-name="battery-charging" unicode="&#xe81c;" d="M409 500c14-10 17-29 7-43l-23-32c-12-17-20-28-25-36-2-3-3-5-3-6 0 0 0-1 0-1 1 0 4 0 7-1 10-1 23-1 44-1l2 0c19 0 36 0 49-1 13-2 30-5 43-17 12-11 19-26 21-42 2-17-5-32-12-44-7-11-17-25-29-40l-22-30c-10-13-30-16-44-6-13 10-16 30-6 44l21 28c13 17 21 28 26 36 2 4 3 6 4 7-1 0-1 0-1 0-1 0-3 1-7 1-10 1-23 1-45 2l-1 0c-19 0-36 0-49 1-13 1-29 4-42 16-12 11-20 26-21 42-3 17 4 32 11 43 6 12 16 25 27 40l24 33c10 14 30 17 44 7z m-79 131c1 0 2 0 3 0h167c1 0 2 0 3 0 36 0 58 0 76-3 75-12 138-58 173-122h40c63 0 114-51 114-114v-84c0-63-51-114-114-114h-40c-35-64-98-110-173-122-18-3-40-3-76-3h-173c-35 0-57 0-76 3-102 16-183 96-199 199-3 19-3 40-3 76 0 1 0 2 0 3 0 1 0 2 0 3 0 36 0 58 3 76 16 103 97 183 199 199 19 3 41 3 76 3z m446-375h16c28 0 52 24 52 52v84c0 28-24 52-52 52h-16c1-5 2-10 2-15 3-18 3-40 3-76v-6c0-36 0-57-3-76 0-5-1-10-2-15z m-443 313c-40 0-56 0-69-2-76-12-135-72-147-148-2-13-2-29-2-69 0-40 0-56 2-69 12-76 71-136 147-148 13-2 29-2 69-2h167c40 0 56 0 69 2 61 10 111 50 135 105 6 13 10 28 13 43 2 13 2 29 2 69 0 40 0 56-2 69-3 16-7 30-13 44-24 54-74 94-135 104-13 2-29 2-69 2h-167z" horiz-adv-x="1000" />

<glyph glyph-name="battery-fully" unicode="&#xe81d;" d="M236 461c16 8 34 2 42-14l4-8c28-56 28-122 0-177l-4-9c-8-16-26-22-42-14-15 7-22 26-14 42l4 8c20 39 20 83 0 122l-4 8c-8 16-1 35 14 42z m167 0c15 8 34 2 42-14l4-8c28-56 28-122 0-177l-4-9c-8-16-27-22-42-14-16 7-22 26-14 42l4 8c19 39 19 83 0 122l-4 8c-8 16-2 35 14 42z m166 0c16 8 35 2 42-14l5-8c28-56 28-122 0-177l-5-9c-7-16-26-22-42-14-15 7-21 26-14 42l5 8c19 39 19 83 0 122l-5 8c-7 16-1 35 14 42z m-239 170c1 0 2 0 3 0h167c1 0 2 0 3 0 36 0 58 0 76-3 75-12 138-58 173-122h40c63 0 114-51 114-114v-84c0-63-51-114-114-114h-40c-35-64-98-110-173-122-18-3-40-3-76-3h-173c-35 0-57 0-76 3-102 16-183 96-199 199-3 19-3 40-3 76 0 1 0 2 0 3 0 1 0 2 0 3 0 36 0 58 3 76 16 103 97 183 199 199 19 3 41 3 76 3z m446-375h16c28 0 52 24 52 52v84c0 28-24 52-52 52h-16c1-5 2-10 2-15 3-18 3-40 3-76v-6c0-36 0-57-3-76 0-5-1-10-2-15z m-443 313c-40 0-56 0-69-2-76-12-135-72-147-148-2-13-2-29-2-69 0-40 0-56 2-69 12-76 71-136 147-148 13-2 29-2 69-2h167c40 0 56 0 69 2 61 10 111 50 135 105 6 13 10 28 13 43 2 13 2 29 2 69 0 40 0 56-2 69-3 16-7 30-13 44-24 54-74 94-135 104-13 2-29 2-69 2h-167z" horiz-adv-x="1000" />

<glyph glyph-name="battery-low" unicode="&#xe81e;" d="M236 461c16 8 34 2 42-14l4-8c28-56 28-122 0-177l-4-9c-8-16-26-22-42-14-15 7-22 26-14 42l4 8c20 39 20 83 0 122l-4 8c-8 16-1 35 14 42z m94 170c1 0 2 0 3 0h167c1 0 2 0 3 0 36 0 58 0 76-3 75-12 138-58 173-122h40c63 0 114-51 114-114v-84c0-63-51-114-114-114h-40c-35-64-98-110-173-122-18-3-40-3-76-3h-173c-35 0-57 0-76 3-102 16-183 96-199 199-3 19-3 40-3 76 0 1 0 2 0 3 0 1 0 2 0 3 0 36 0 58 3 76 16 103 97 183 199 199 19 3 41 3 76 3z m446-375h16c28 0 52 24 52 52v84c0 28-24 52-52 52h-16c1-5 2-10 2-15 3-18 3-40 3-76v-6c0-36 0-57-3-76 0-5-1-10-2-15z m-443 313c-40 0-56 0-69-2-76-12-135-72-147-148-2-13-2-29-2-69 0-40 0-56 2-69 12-76 71-136 147-148 13-2 29-2 69-2h167c40 0 56 0 69 2 61 10 111 50 135 105 6 13 10 28 13 43 2 13 2 29 2 69 0 40 0 56-2 69-3 16-7 30-13 44-24 54-74 94-135 104-13 2-29 2-69 2h-167z" horiz-adv-x="1000" />

<glyph glyph-name="battery-normal" unicode="&#xe81f;" d="M236 461c16 8 34 2 42-14l4-8c28-56 28-122 0-177l-4-9c-8-16-26-22-42-14-15 7-22 26-14 42l4 8c20 39 20 83 0 122l-4 8c-8 16-1 35 14 42z m167 0c15 8 34 2 42-14l4-8c28-56 28-122 0-177l-4-9c-8-16-27-22-42-14-16 7-22 26-14 42l4 8c19 39 19 83 0 122l-4 8c-8 16-2 35 14 42z m-73 170c1 0 2 0 3 0h167c1 0 2 0 3 0 36 0 58 0 76-3 75-12 138-58 173-122h40c63 0 114-51 114-114v-84c0-63-51-114-114-114h-40c-35-64-98-110-173-122-18-3-40-3-76-3h-173c-35 0-57 0-76 3-102 16-183 96-199 199-3 19-3 40-3 76 0 1 0 2 0 3 0 1 0 2 0 3 0 36 0 58 3 76 16 103 97 183 199 199 19 3 41 3 76 3z m446-375h16c28 0 52 24 52 52v84c0 28-24 52-52 52h-16c1-5 2-10 2-15 3-18 3-40 3-76v-6c0-36 0-57-3-76 0-5-1-10-2-15z m-443 313c-40 0-56 0-69-2-76-12-135-72-147-148-2-13-2-29-2-69 0-40 0-56 2-69 12-76 71-136 147-148 13-2 29-2 69-2h167c40 0 56 0 69 2 61 10 111 50 135 105 6 13 10 28 13 43 2 13 2 29 2 69 0 40 0 56-2 69-3 16-7 30-13 44-24 54-74 94-135 104-13 2-29 2-69 2h-167z" horiz-adv-x="1000" />

<glyph glyph-name="bold" unicode="&#xe820;" d="M628 350c24 21 42 54 42 104 0 64-29 100-62 119-30 17-60 17-62 17h-143c-40 0-73-33-73-73v-334c0-40 33-73 73-73h143v32c0-32 0-32 0-32l0 0 0 0 1 0 0 0c1 0 1 0 2 1 1 0 2 0 4 0 3 0 8 1 14 2 11 2 26 6 41 15 33 18 62 54 62 118 0 50-18 83-42 104z m-225 177c-6 0-11-5-11-10v-136l154 0c0 0 0 0 0 0 0 0 1 0 2 0 1 1 4 1 7 1 6 2 15 4 22 8 14 8 31 24 31 64 0 41-17 57-31 64-15 9-31 9-31 9 0 0 0 0 0 0l-143 0z m143-354c0 0 0 0 0 0 0 0 1 0 2 0 1 0 4 0 7 1 6 1 15 4 22 8 14 8 31 23 31 64 0 40-17 56-31 64-7 4-16 7-22 8-3 0-6 1-7 1-1 0-2 0-2 0 0 0 0 0 0 0l-154 0v-136c0-5 5-10 11-10h143z m-48 583h4c76 0 136 0 184-5 49-5 88-16 122-40 20-15 38-33 53-53 24-34 35-73 40-122 5-48 5-108 5-184v-4c0-76 0-136-5-184-5-48-16-88-40-121-15-21-33-39-53-54-34-24-73-35-122-40-48-5-108-5-184-5h-4c-76 0-136 0-184 5-48 5-88 16-121 40-21 15-39 33-53 54-25 33-36 73-41 121-5 48-5 108-5 184v4c0 76 0 136 5 184 5 49 16 88 41 122 14 20 32 38 53 53 33 24 73 35 121 40 48 5 108 5 184 5z m-177-67c-43-5-71-14-92-29-15-11-28-24-39-39-15-21-24-48-29-92-5-44-5-100-5-179 0-79 0-135 5-179 5-43 14-71 29-92 11-15 24-28 39-39 21-15 49-24 92-29 44-5 100-5 179-5 79 0 135 0 179 5 44 5 71 14 92 29 15 11 28 24 39 39 15 21 24 49 29 92 5 44 5 100 5 179 0 79 0 135-5 179-5 44-14 71-29 92-11 15-24 28-39 39-21 15-48 24-92 29-44 5-100 5-179 5-79 0-135 0-179-5z" horiz-adv-x="1000" />

<glyph glyph-name="bookmark-1" unicode="&#xe821;" d="M493 756c-71 0-114 0-150-11-73-24-130-81-154-154-12-36-12-80-12-151l0-316c0-39 0-70 2-93 2-24 6-46 18-64 24-35 65-55 108-50 21 3 41 14 60 28 19 14 42 34 72 60l1 1c29 24 37 31 45 33 11 4 23 4 34 0 8-2 16-9 45-33l1-1c30-26 53-46 73-60 19-14 38-25 59-28 43-5 84 15 108 50 12 18 16 40 18 64 2 23 2 54 2 93l0 316c0 71 0 115-12 151-23 73-81 130-154 154-36 11-79 11-150 11h-14z m-131-71c25 8 58 9 138 9 80 0 113-1 138-9 54-17 96-60 114-114 8-25 8-58 8-138v-307c0-41 0-69-1-90-2-22-5-30-7-34-11-16-30-25-50-23-4 1-12 4-30 17-17 12-38 31-69 57l-4 4c-23 19-40 34-61 41-24 9-51 9-76 0-20-7-38-22-61-41l-4-4c-30-26-52-45-69-57-18-13-26-16-30-17-20-2-39 7-49 23-3 4-6 12-8 34-1 21-1 49-1 90v307c0 80 0 113 8 138 18 54 60 97 114 114z" horiz-adv-x="1000" />

<glyph glyph-name="bookmark-2" unicode="&#xe822;" d="M375 506c-17 0-31-14-31-31 0-17 14-31 31-31h250c17 0 31 14 31 31 0 17-14 31-31 31h-250z m118 250c-71 0-114 0-150-11-73-24-130-81-154-154-12-36-12-80-12-151l0-316c0-39 0-70 2-93 2-24 6-46 18-64 24-35 65-55 108-50 21 3 41 14 60 28 19 14 42 34 72 60l1 1c29 24 37 31 45 33 11 4 23 4 34 0 8-2 16-9 45-33l1-1c30-26 53-46 73-60 19-14 38-25 59-28 43-5 84 15 108 50 12 18 16 40 18 64 2 23 2 54 2 93l0 316c0 71 0 115-12 151-23 73-81 130-154 154-36 11-79 11-150 11h-14z m-131-71c25 8 58 9 138 9 80 0 113-1 138-9 54-17 96-60 114-114 8-25 8-58 8-138v-307c0-41 0-69-1-90-2-22-5-30-7-34-11-16-30-25-50-23-4 1-12 4-30 17-17 12-38 31-69 57l-4 4c-23 19-40 34-61 41-24 9-51 9-76 0-20-7-38-22-61-41l-4-4c-30-26-52-45-69-57-18-13-26-16-30-17-20-2-39 7-49 23-3 4-6 12-8 34-1 21-1 49-1 90v307c0 80 0 113 8 138 18 54 60 97 114 114z" horiz-adv-x="1000" />

<glyph glyph-name="bookmark-3" unicode="&#xe823;" d="M635 433c0-17 14-31 32-31 17 0 31 14 31 31 0 110-89 198-198 198-17 0-31-14-31-31 0-17 14-31 31-31 75 0 135-61 135-136z m-427 0c0 78 0 117 11 148 20 64 70 113 133 134 32 10 70 10 148 10 78 0 116 0 148-10 63-21 113-70 134-134 10-31 10-70 10-148v-307c0-80 0-120-15-141-17-26-47-40-78-37-26 3-56 29-116 81-27 23-41 35-55 40-18 6-38 6-56 0-14-5-28-17-54-40-61-52-91-78-117-81-31-3-61 11-78 37-15 21-15 61-15 141v307z m514 129c6-20 7-46 7-129v-307c0-41 0-68-1-88-1-13-3-18-3-20-4-5-11-8-18-8-1 1-6 3-16 11-16 12-37 29-68 56-2 1-3 3-5 4-21 18-43 38-69 47-32 11-66 11-98 0-26-9-48-28-69-47 0 0-1 0-1-1-1-1-3-2-4-3-31-27-52-44-68-56-10-8-15-10-16-11-7 0-14 3-18 8 0 2-2 7-3 20-1 20-1 47-1 88v307c0 83 1 109 7 129 14 44 49 79 94 93 19 7 46 8 128 8 82 0 109-1 128-8 45-14 80-49 94-93z" horiz-adv-x="1000" />

<glyph glyph-name="buy-1" unicode="&#xe824;" d="M448 350c0 17-14 31-31 31-18 0-32-14-32-31v-167c0-17 14-31 32-31 17 0 31 14 31 31v167z m167 0c0 17-14 31-32 31-17 0-31-14-31-31v-167c0-17 14-31 31-31 18 0 32 14 32 31v167z m32 355c-12 13-32 13-44 0-12-12-12-32 0-44l113-113h-422l113 113c12 12 12 32 0 44-12 13-32 13-44 0l-157-157h-123c-17 0-31-14-31-31 0-18 14-32 31-32h23c9-35 22-76 36-124l43-144c17-57 27-92 45-121 32-49 80-85 136-101 32-10 69-10 129-10h11c59 0 96 0 128 10 56 16 105 52 136 101 18 29 29 64 45 121l43 144c14 48 27 89 36 124h23c17 0 31 14 31 32 0 17-14 31-31 31h-112l-158 157z m-445-327c-12 41-23 77-31 107h658c-8-30-19-66-31-107l-41-138c-19-64-27-90-40-110-23-37-59-63-100-75-23-7-50-7-117-7-67 0-94 0-117 7-41 12-77 38-100 75-13 20-21 46-40 110l-41 138z" horiz-adv-x="1000" />

<glyph glyph-name="buy-2" unicode="&#xe825;" d="M72 774c-4 17-21 27-38 23-17-4-27-21-23-38l44-175 41-170c17-73 31-130 47-174 17-45 37-81 70-108 3-2 6-4 8-6 34-26 73-37 121-43 47-5 106-5 180-5h25c64 0 115 0 156 4 42 4 76 13 107 32 15 9 28 20 41 32 29 29 46 65 61 111 11 34 21 76 33 127l3 13c9 38 17 69 20 94 3 26 2 51-12 74-5 10-12 19-20 26-19 18-43 25-69 28-26 4-58 4-96 4l-661 0-38 151z m84-344l-31 130h644c41 0 69 0 90-3 20-2 29-6 34-11 4-4 7-8 9-12 4-6 6-15 4-36-2-18-8-42-16-75l-307 0c-17 0-31-14-31-31 0-18 14-32 31-32l292 0c-6-23-11-44-16-62h-151c-17 0-31-14-31-31 0-18 14-32 31-32h129c-9-19-18-33-30-44-9-9-19-17-30-24-20-12-44-19-80-23-38-4-85-4-152-4h-21c-77 0-132 0-174 5-42 5-69 14-91 31-2 1-4 3-6 5-21 17-37 41-51 81-15 40-28 93-46 168z m280-453c0-24-19-44-43-44-25 0-44 20-44 44 0 24 19 44 44 44 24 0 43-20 43-44z m264 0c0-24-20-44-44-44-24 0-44 20-44 44 0 24 20 44 44 44 24 0 44-20 44-44z" horiz-adv-x="1000" />

<glyph glyph-name="buy-3" unicode="&#xe826;" d="M417 298c-18 0-32-14-32-31 0-18 14-32 32-32h250c17 0 31 14 31 32 0 17-14 31-31 31h-250z m-345 476c-4 17-21 27-38 23-17-4-27-21-23-38l44-175 41-170c17-73 31-130 47-174 17-45 37-81 70-108 3-2 6-4 8-6 34-26 73-37 121-43 47-5 106-5 180-5h25c64 0 115 0 156 4 42 4 76 13 107 32 15 9 28 20 41 32 26 26 42 57 56 97 14 39 25 88 41 150l0 4c9 38 17 69 20 94 3 26 2 51-12 74-5 10-12 19-20 26-19 18-43 25-69 28-26 4-58 4-96 4l-661 0-38 151z m84-344l-31 130h644c41 0 69 0 90-3 20-2 29-6 34-11 4-4 7-8 9-12 4-6 6-15 4-36-3-21-9-48-19-88-15-65-26-111-39-147-12-34-24-56-41-72-9-9-19-17-30-24-20-12-44-19-81-23-37-4-84-4-151-4h-21c-77 0-132 0-174 5-42 5-69 14-91 31-2 1-4 3-6 5-21 17-37 41-51 81-15 40-28 93-46 168z m280-453c0-24-19-44-43-44-25 0-44 20-44 44 0 24 19 44 44 44 24 0 43-20 43-44z m264 0c0-24-20-44-44-44-24 0-44 20-44 44 0 24 20 44 44 44 24 0 44-20 44-44z" horiz-adv-x="1000" />

<glyph glyph-name="calender-1" unicode="&#xe827;" d="M344 267c0 17 14 31 31 31h250c17 0 31-14 31-31 0-18-14-32-31-32h-250c-17 0-31 14-31 32z m31 531c17 0 31-14 31-31v-53c28 1 59 1 94 1h1c34 0 65 0 93-1v53c0 17 14 31 31 31 17 0 31-14 31-31v-55c63-4 112-14 152-43 20-15 38-33 53-53 33-46 41-103 44-182 1-35 1-77 1-125v-1c0-48 0-90-1-126-3-78-11-135-44-181-15-21-33-38-53-53-46-34-104-42-182-45-36-1-77-1-126-1h-2c-76 0-136 0-184 5-48 5-88 16-121 41-21 15-39 32-53 53-25 33-36 73-41 121-5 48-5 108-5 185l0 2c0 48 0 90 1 125 3 79 11 136 45 182 14 20 32 38 53 53 39 29 88 39 151 43v55c0 17 14 31 31 31z m-31-149c-57-4-90-13-115-31-15-11-28-24-39-39-18-25-27-58-31-114h682c-4 56-13 89-31 114-11 15-24 28-39 39-25 18-58 27-115 31v-7c0-18-14-32-31-32-17 0-31 14-31 32v10c-28 0-59 0-94 0-35 0-66 0-94 0v-10c0-18-14-32-31-32-17 0-31 14-31 32v7z m499-247h-686c-1-27-1-58-1-94 0-78 0-135 5-179 5-43 14-70 29-91 11-15 24-29 39-40 21-15 49-24 92-29 44-4 100-4 179-4 35 0 66 0 94 0 0 20 1 34 3 48 16 102 96 182 199 199 13 2 28 2 47 3 1 27 1 58 1 93 0 36 0 67-1 94z m-2-250c-17 0-27-1-35-2-76-12-136-71-148-147-1-9-1-19-2-36 57 4 90 13 115 31 15 11 28 25 39 40 18 25 27 57 31 114z" horiz-adv-x="1000" />

<glyph glyph-name="calender-2" unicode="&#xe828;" d="M375 798c17 0 31-14 31-31v-53c28 1 59 1 94 1h1c34 0 65 0 93-1v53c0 17 14 31 31 31 17 0 31-14 31-31v-55c63-4 112-14 152-43 20-15 38-33 53-53 24-34 35-73 40-122 5-47 5-107 5-184v-2c0-48 0-90-1-126-3-78-11-135-44-181-15-21-33-38-53-53-46-34-104-42-182-45-36-1-77-1-126-1h-2c-76 0-136 0-184 5-48 5-88 16-121 41-21 15-39 32-53 53-25 33-36 73-41 121-5 48-5 108-5 185v3c0 77 0 137 5 184 5 49 16 88 41 122 14 20 32 38 53 53 39 29 88 39 151 43v55c0 17 14 31 31 31z m-31-149c-57-4-90-13-115-31-15-11-28-24-39-39-15-21-24-48-29-91-5-44-5-101-5-180 0-78 0-135 5-179 5-43 14-70 29-91 11-15 24-29 39-40 21-15 49-24 92-29 44-4 100-4 179-4 35 0 66 0 94 0 0 20 1 34 3 48 16 102 96 182 199 199 13 2 28 2 47 3 1 27 1 58 1 93 0 79 0 136-5 180-5 43-14 70-29 91-11 15-24 28-39 39-25 18-58 27-115 31v-7c0-18-14-32-31-32-17 0-31 14-31 32v10c-28 0-59 0-94 0-35 0-66 0-94 0v-10c0-18-14-32-31-32-17 0-31 14-31 32v7z m497-497c-17 0-27-1-35-2-76-12-136-71-148-147-1-9-1-19-2-36 57 4 90 13 115 31 15 11 28 25 39 40 18 25 27 57 31 114z m-508 323c0-23-18-42-41-42-23 0-42 19-42 42 0 23 19 42 42 42 23 0 41-19 41-42z m0-167c0-23-18-41-41-41-23 0-42 18-42 41 0 23 19 42 42 42 23 0 41-19 41-42z m209 167c0-23-19-42-42-42-23 0-42 19-42 42 0 23 19 42 42 42 23 0 42-19 42-42z m0-167c0-23-19-41-42-41-23 0-42 18-42 41 0 23 19 42 42 42 23 0 42-19 42-42z m0-166c0-23-19-42-42-42-23 0-42 19-42 42 0 23 19 41 42 41 23 0 42-18 42-41z m208 333c0-23-19-42-42-42-23 0-41 19-41 42 0 23 18 42 41 42 23 0 42-19 42-42z m0-167c0-23-19-41-42-41-23 0-41 18-41 41 0 23 18 42 41 42 23 0 42-19 42-42z m-417-166c0-23-18-42-41-42-23 0-42 19-42 42 0 23 19 41 42 41 23 0 41-18 41-41z" horiz-adv-x="1000" />

<glyph glyph-name="call-missed" unicode="&#xe829;" d="M338 726c-44 40-111 40-155 0-2-2-4-3-6-6l-38-37c-37-38-53-92-41-144 65-295 295-525 590-591 52-11 106 5 144 42l37 38c3 2 5 4 6 6 40 44 40 111 0 155-1 2-3 4-6 6l-61 61c-43 43-107 55-162 31-31-14-68-7-92 18l-100 99c-25 25-32 61-18 93 24 55 12 119-31 162l-61 61c-2 3-4 4-6 6z m-113-46c20 18 51 18 71 0 0-1 1-1 5-5l60-60c25-25 32-61 18-93-24-55-12-119 30-162l100-100c43-42 107-54 162-30 32 13 68 6 93-18l61-61c3-3 4-4 4-4 19-20 19-51 0-71 0-1-1-1-4-5l-37-37c-23-22-55-32-86-25-272 61-483 272-543 543-7 31 2 64 25 86l37 37c3 4 4 4 4 5z m646 18c12 12 12 32 0 44-13 12-32 12-45 0l-66-66-66 66c-12 12-32 12-44 0-13-12-13-32 0-44l66-66-66-67c-13-12-13-32 0-44 12-12 32-12 44 0l66 66 66-66c13-12 32-12 45 0 12 12 12 32 0 44l-67 67 67 66z" horiz-adv-x="1000" />

<glyph glyph-name="call-silent" unicode="&#xe82a;" d="M827 672c12 12 12 32 0 44-12 12-32 12-44 0l-472-472-45-44-150-151c-12-12-12-32 0-44 12-12 32-12 44 0l667 667z m-612 18c20 19 50 19 70 0 1 0 2-1 5-4l61-61c24-24 31-61 17-93-24-55-11-119 31-161l19-20 13 13c7 7 0 0 12 12 12 12 2 3 15 16l5 3-20 20c-24 24-31 61-17 92 24 56 12 120-31 162l-61 61c-3 3-5 5-6 7-44 40-112 40-155 0-2-2-4-4-7-7l-37-37c-38-38-53-92-42-144 30-132 92-252 179-349 5 4 2 1 5 4 0 0 9 9 21 21 12 12 10 10 10 10 0 0 2 2 9 9-79 89-136 198-163 319-7 31 3 63 25 86l37 37c3 3 4 4 5 4z m206-547c-13 10-31 9-42-3-13-13-12-34 3-46 86-64 186-111 296-135 51-12 106 4 143 42l38 37c2 3 4 4 6 6 40 44 40 111 0 155-2 2-4 4-6 7l-61 61c-43 42-107 54-162 30-20-8-43-9-62-2-16 6-35 6-46-6-13-12-13-34 3-43 39-21 87-24 130-6 31 14 68 7 92-17l61-61c3-3 4-4 5-5 18-20 18-51 0-70-1-1-2-2-5-5l-37-37c-22-23-55-32-86-25-100 22-191 65-270 123z" horiz-adv-x="1000" />

<glyph glyph-name="call" unicode="&#xe82b;" d="M338 726c-44 40-111 40-155 0-2-2-4-3-6-6l-38-37c-37-38-53-92-41-144 65-295 295-525 590-591 52-11 106 5 144 42l37 38c3 2 5 4 6 6 40 44 40 111 0 155-1 2-3 4-6 6l-61 61c-43 43-107 55-162 31-31-14-68-7-92 18l-100 99c-25 25-32 61-18 93 24 55 12 119-31 162l-61 61c-2 3-4 4-6 6z m-113-46c20 18 51 18 71 0 0-1 1-1 5-5l60-60c25-25 32-61 18-93-24-55-12-119 30-162l100-100c43-42 107-54 162-30 32 13 68 6 93-18l61-61c3-3 4-4 4-4 19-20 19-51 0-71 0-1-1-1-4-5l-37-37c-23-22-55-32-86-25-272 61-483 272-543 543-7 31 2 64 25 86l37 37c3 4 4 4 4 5z" horiz-adv-x="1000" />

<glyph glyph-name="calling-1" unicode="&#xe82c;" d="M541 735c36 0 52 0 65-1 146-13 261-128 274-274 1-13 1-29 1-65v-41c0-17 14-31 32-31 17 0 31 14 31 31v44c0 33 0 52-2 68-15 176-155 315-330 331-17 1-35 1-69 1h-43c-17 0-31-14-31-31 0-18 14-32 31-32l41 0z m-245-53c-43 41-111 41-155 0-1-1-3-3-6-6l-37-37c-38-38-54-92-42-144 65-295 296-525 590-590 52-12 106 4 144 41l37 38c3 2 5 4 7 6 40 44 40 111 0 155-2 2-4 4-7 6l-61 62c-42 42-106 54-162 30-31-14-68-7-92 18l-100 100c-24 24-31 61-18 92 24 55 12 120-30 162l-61 61c-3 3-5 5-7 6z m-112-46c20 19 50 19 70 0 1 0 2-1 5-4l61-61c24-24 31-61 17-93-24-55-12-119 31-162l100-99c42-43 106-55 161-31 32 14 69 7 93-18l61-60c3-4 4-4 5-5 18-20 18-51 0-71-1 0-2-1-5-4l-37-37c-23-23-55-32-86-25-271 60-483 272-543 543-7 31 2 63 25 86l37 37c3 3 4 4 5 4z m346 15c-18 0-32-14-32-32 0-17 14-31 32-31h23c1 0 1 0 1 0 3 0 4 0 5 0 96-1 174-79 175-174 0-2 0-3 0-7v-23c0-18 14-32 31-32 17 0 31 14 31 32v24c0 0 0 0 0 1 0 2 0 4 0 5-1 130-106 235-236 237-1 0-3 0-7 0h-23z" horiz-adv-x="1000" />

<glyph glyph-name="calling-2" unicode="&#xe82d;" d="M338 726c-44 40-111 40-155 0-2-2-4-3-6-6l-38-37c-37-38-53-92-41-144 65-295 295-525 590-591 52-11 106 5 144 42l37 38c3 2 5 4 6 6 40 44 40 111 0 155-1 2-3 4-6 6l-61 61c-43 43-107 55-162 31-31-14-68-7-92 18l-100 99c-25 25-32 61-18 93 24 55 12 119-31 162l-61 61c-2 3-4 4-6 6z m-113-46c20 18 51 18 71 0 0-1 1-1 5-5l60-60c25-25 32-61 18-93-24-55-12-119 30-162l100-100c43-42 107-54 162-30 32 13 68 6 93-18l61-61c3-3 4-4 4-4 19-20 19-51 0-71 0-1-1-1-4-5l-37-37c-23-22-55-32-86-25-272 61-483 272-543 543-7 31 2 64 25 86l37 37c3 4 4 4 4 5z m371-48c3 0 4 0 5 0 96-1 173-79 175-175 0-1 0-2 0-6v-24c0-17 14-31 31-31 17 0 31 14 31 31v24c0 4 0 6 0 7-2 130-106 235-236 236-2 0-4 0-7 0h-24c-17 0-31-14-31-31 0-17 14-31 31-31h24c0 0 1 0 1 0z" horiz-adv-x="1000" />

<glyph glyph-name="camera-1" unicode="&#xe82e;" d="M500 506c-109 0-198-88-198-198 0-109 89-198 198-198 109 0 198 89 198 198 0 110-89 198-198 198z m-135-198c0 75 60 136 135 136 75 0 135-61 135-136 0-74-60-135-135-135-75 0-135 61-135 135z m287 449c-87 77-217 77-304 0l-9-8c-25-22-57-34-90-34-109 0-197-89-197-198v-211c0-76 0-136 5-184 6-48 16-88 41-121 15-21 33-38 53-53 33-25 73-36 121-41 48-5 108-5 184-5h88c76 0 136 0 184 5 48 5 88 16 121 41 21 15 38 32 53 53 25 33 36 73 41 121 5 48 5 108 5 184v211c0 109-88 198-197 198-33 0-65 12-90 34l-9 8z m-263-47c64 56 159 56 222 0l9-8c36-32 82-50 131-50 74 0 134-60 134-135v-209c0-78 0-135-4-179-5-43-14-70-29-91-11-15-24-29-40-40-21-15-48-24-91-29-44-4-100-4-179-4h-84c-78 0-135 0-179 4-43 5-70 14-91 29-15 11-29 25-40 40-15 21-24 48-29 91-4 44-4 101-4 179v209c0 75 60 135 134 135 49 0 95 18 131 50l9 8z m319-193c0-23 19-42 42-42 23 0 42 19 42 42 0 23-19 41-42 41-23 0-42-18-42-41z" horiz-adv-x="1000" />

<glyph glyph-name="camera-2" unicode="&#xe82f;" d="M500 527c-109 0-198-88-198-198 0-109 89-198 198-198 109 0 198 89 198 198 0 110-89 198-198 198z m-135-198c0 75 60 136 135 136 75 0 135-61 135-136 0-75-60-135-135-135-75 0-135 60-135 135z m20 511c-57 0-104-47-104-105v-7c0-19-15-34-34-34-108 0-195-87-195-195v-192c0-67 0-119 4-161 4-43 13-78 31-109 20-32 47-59 80-79 30-19 65-27 108-31 42-4 94-4 161-4h128c67 0 119 0 161 4 43 4 78 12 109 31 32 20 59 47 79 79 19 31 27 66 31 109 4 42 4 94 4 161v192c0 108-87 195-195 195-19 0-34 15-34 34v7c0 58-47 105-104 105h-230z m-41-105c0 23 18 42 41 42h230c23 0 41-19 41-42v-7c0-53 44-97 97-97 73 0 132-59 132-132v-191c0-68 0-118-3-156-4-38-11-63-23-82-14-24-34-44-58-58-19-12-44-19-82-23-38-4-88-4-156-4h-125c-69 0-119 0-157 4-38 4-62 11-82 23-24 14-44 34-58 58-12 19-19 44-23 82-3 38-3 88-3 156v191c0 73 59 132 132 132 53 0 97 44 97 97v7z m364-239c0-23 19-42 42-42 23 0 42 19 42 42 0 23-19 42-42 42-23 0-42-19-42-42z" horiz-adv-x="1000" />

<glyph glyph-name="camera-slash-1" unicode="&#xe830;" d="M939 739c12 12 12 31 0 44-12 12-32 12-44 0l-834-834c-12-12-12-32 0-44 12-12 32-12 44 0l834 834z m-287 12c-87 77-217 77-304 0l-9-8c-25-22-57-34-90-34-109 0-197-89-197-198v-211c0-76 0-136 5-184 6-48 16-88 41-121 12-17 27-33 43-46 1-1 3-1 4 0l3 4c21 21 18 55 0 79-15 21-24 48-29 91-4 44-4 100-4 179v209c0 75 60 135 134 135 49 0 95 18 131 50l9 8c64 56 159 56 222 0l9-8c36-32 82-50 131-50 16 0 33-3 47-9 14-5 31-3 41 7 15 14 13 38-5 46-26 12-54 19-83 19-33 0-65 12-90 34l-9 8z m278-157c-9 18-32 20-46 6-11-11-13-27-7-41 5-15 8-31 8-48v-209c0-79 0-135-4-179-5-43-14-70-29-91-11-16-24-29-40-40-21-15-48-24-91-29-44-5-100-5-179-5h-84c-78 0-135 0-179 5-3 1-7 1-10 1-11 2-23-1-31-9-17-18-10-48 15-51 6-1 13-2 19-3 48-5 108-5 184-5h88c76 0 136 0 184 5 48 5 88 16 121 41 21 14 38 32 53 53 25 33 36 73 41 121 5 48 5 108 5 184v211c0 30-7 58-18 83z m-487-435c-17-16-12-44 10-49 15-4 31-6 47-6 109 0 198 89 198 198 0 16-2 32-6 47-5 22-32 27-49 11-9-9-11-23-9-35 1-8 1-15 1-23 0-75-60-135-135-135-8 0-15 0-22 2-13 2-26-1-35-10z m173 262c-12-12-31-12-46-3-20 13-44 20-70 20-75 0-135-61-135-136 0-25 7-49 19-70 9-14 9-34-3-46-12-12-32-12-42 2-23 32-37 72-37 114 0 110 89 198 198 198 43 0 82-13 115-36 14-10 14-31 1-43z" horiz-adv-x="1000" />

<glyph glyph-name="camera-slash-2" unicode="&#xe831;" d="M939 713c12 13 12 32 0 45-12 12-32 12-44 0l-834-834c-12-12-12-32 0-44 12-12 32-12 44 0l834 833z m-595-9c0 23 18 42 41 42h230c23 0 41-19 41-42v-7c0-54 44-97 97-97 12 0 23-1 34-4 13-4 28-2 38 8 15 15 12 41-9 48-19 7-41 11-63 11-19 0-34 15-34 34v7c0 58-47 104-104 104h-230c-57 0-104-46-104-104v-7c0-19-15-34-34-34-108 0-195-88-195-195v-193c0-66 0-119 4-161 4-42 13-77 31-108 13-21 29-40 48-56 11-10 27-8 38 2l26 27c1 0 1 1 0 1-24 15-44 35-58 59-12 19-19 43-23 81-3 39-3 88-3 157v191c0 73 59 132 132 132 53 0 97 43 97 97v7z m-63-746c-8 1-16-2-22-8l-3-3c-18-18-10-49 16-51 1 0 2 0 3 0 42-4 94-4 161-4h128c67 0 119 0 161 4 43 4 78 12 109 31 32 20 59 47 79 79 19 31 27 66 31 108 4 42 4 95 4 161v193c0 35-9 68-26 97-9 16-31 17-44 4-12-12-13-30-6-44 9-17 13-37 13-57v-191c0-69 0-118-3-157-4-38-11-62-23-81-14-24-34-44-58-59-19-12-44-19-82-22-38-4-88-4-156-4h-125c-69 0-119 0-157 4z m365 379c18 18 47 12 50-13 1-9 2-17 2-26 0-109-89-198-198-198-9 0-17 1-26 2-25 3-31 32-13 50 8 8 20 11 31 11 3 0 5 0 8 0 75 0 135 60 135 135 0 3 0 5 0 8 0 11 3 23 11 31z m-18 71c12 12 13 30 0 41-34 29-79 47-128 47-109 0-198-89-198-198 0-49 18-94 47-128 11-13 29-12 41 0 13 12 11 33 1 48-17 22-26 50-26 80 0 75 60 135 135 135 30 0 58-9 80-26 15-10 36-12 48 1z" horiz-adv-x="1000" />

<glyph glyph-name="card-1" unicode="&#xe832;" d="M542 173c-18 0-32-14-32-31 0-18 14-32 32-32h166c18 0 32 14 32 32 0 17-14 31-32 31h-166z m139 539c-36 3-81 3-138 3h-86c-57 0-102 0-138-3-37-3-67-10-94-23-45-23-82-60-105-105-20-40-25-86-26-150 0-24 0-52 0-84v-1c0-58 0-102 3-138 3-37 9-67 23-95 23-45 60-81 105-104 27-14 57-21 94-24 36-3 81-3 138-3h86c57 0 102 0 138 3 37 3 67 10 94 24 46 23 82 59 105 104 14 28 20 58 23 95 3 36 3 80 3 138v1c0 32 0 60 0 84-1 64-6 110-26 150-23 45-59 82-105 105-27 13-57 20-94 23z m-428-79c17 9 38 14 71 16 33 3 76 3 134 3h84c59 0 101 0 134-3 33-2 54-7 71-16 33-17 61-44 77-78 11-20 16-46 18-90h-684c2 44 7 70 18 90 17 34 44 61 77 78z m-97-283c0 19 0 36 0 52h688c0-16 0-33 0-52 0-59 0-101-3-134-3-33-8-54-17-71-16-34-44-61-77-78-17-8-38-14-71-16-33-3-75-3-134-3h-84c-58 0-101 0-134 3-33 2-54 8-71 16-33 17-60 44-77 78-9 17-14 38-17 71-3 33-3 75-3 134z" horiz-adv-x="1000" />

<glyph glyph-name="card-2" unicode="&#xe833;" d="M250 173c-17 0-31-14-31-31 0-18 14-32 31-32h83c18 0 32 14 32 32 0 17-14 31-32 31h-83z m208 0c-17 0-31-14-31-31 0-18 14-32 31-32h167c17 0 31 14 31 32 0 17-14 31-31 31h-167z m265 539c-36 3-81 3-138 3h-170c-57 0-102 0-138-3-36-3-67-10-94-23-45-23-82-60-105-105-20-40-24-86-25-150-1-24-1-52-1-84v-1c0-58 0-102 3-138 3-37 9-67 23-95 23-45 60-81 105-104 27-14 58-21 94-24 36-3 81-3 138-3h170c57 0 102 0 138 3 36 3 67 10 94 24 45 23 82 59 105 104 14 28 20 58 23 95 3 36 3 80 3 138v1c0 32 0 60 0 84-2 64-6 110-26 150-23 45-60 82-105 105-27 13-58 20-94 23z m-512-79c17 9 39 14 71 16 34 3 76 3 135 3h166c59 0 101 0 135-3 32-2 54-7 71-16 33-17 60-44 77-78 11-20 16-46 18-90h-768c2 44 7 70 18 90 17 34 44 61 77 78z m-96-283c0 19 0 36 0 52h770c0-16 0-33 0-52 0-59 0-101-2-134-3-33-8-54-17-71-17-34-44-61-77-78-17-8-39-14-71-16-34-3-76-3-135-3h-166c-59 0-101 0-135 3-32 2-54 8-71 16-33 17-60 44-77 78-9 17-14 38-17 71-2 33-2 75-2 134z" horiz-adv-x="1000" />

<glyph glyph-name="icon-1" unicode="&#xe834;" d="M200 674v-290c0-19 17-34 39-34 21 0 39 15 39 34v290c0 60 55 108 122 108 67 0 122-48 122-108v-290c0-19 18-34 39-34 22 0 39 15 39 34v290c0 97-90 176-200 176-110 0-200-79-200-176z m-77-140c-13 0-24-10-25-22l-26-572c0-3 0-6 1-9 1-2 3-5 5-7 5-5 11-7 18-8h607c14 0 25 11 25 24l-26 571c0 13-11 23-25 23l-554 0z m599-684l-648 0c-20 1-39 9-53 23-7 7-13 15-16 24-4 9-5 18-5 28l28 606c2 39 36 69 78 69h589c41 0 75-30 77-69l28-610c0-39-35-71-78-71z" horiz-adv-x="833" />

<glyph glyph-name="chart" unicode="&#xe835;" d="M531 558c0 18-14 32-31 32-17 0-31-14-31-32v-416c0-18 14-32 31-32 17 0 31 14 31 32v416z m167-166c0 17-14 31-31 31-18 0-32-14-32-31v-250c0-18 14-32 32-32 17 0 31 14 31 32v250z m-333-84c0 18-14 32-32 32-17 0-31-14-31-32v-166c0-18 14-32 31-32 18 0 32 14 32 32v166z m321 443c-48 5-108 5-184 5h-4c-76 0-136 0-184-5-48-5-88-16-121-40-21-15-39-33-53-53-25-34-36-73-41-122-5-48-5-108-5-184v-4c0-76 0-136 5-184 5-48 16-88 41-121 14-21 32-39 53-54 33-24 73-35 121-40 48-5 108-5 184-5h4c76 0 136 0 184 5 49 5 88 16 122 40 20 15 38 33 53 54 24 33 35 73 40 121 5 48 5 108 5 184v4c0 76 0 136-5 184-5 49-16 88-40 122-15 20-33 38-53 53-34 24-73 35-122 40z m-457-91c21 15 49 24 92 29 44 5 100 5 179 5 79 0 135 0 179-5 44-5 71-14 92-29 15-11 28-24 39-39 15-21 24-48 29-92 5-44 5-100 5-179 0-79 0-135-5-179-5-43-14-71-29-92-11-15-24-28-39-39-21-15-48-24-92-29-44-5-100-5-179-5-79 0-135 0-179 5-43 5-71 14-92 29-15 11-28 24-39 39-15 21-24 49-29 92-5 44-5 100-5 179 0 79 0 135 5 179 5 44 14 71 29 92 11 15 24 28 39 39z" horiz-adv-x="1000" />

<glyph glyph-name="close-circle" unicode="&#xe836;" d="M611 406c12 12 12 32 0 44-13 13-32 13-45 0l-66-66-66 66c-12 13-32 13-44 0-13-12-13-32 0-44l66-66-66-66c-13-13-13-32 0-45 12-12 32-12 44 0l66 67 66-67c13-12 32-12 45 0 12 13 12 32 0 45l-67 66 67 66z m-111 392c-247 0-448-201-448-448 0-247 201-448 448-448 247 0 448 201 448 448 0 247-201 448-448 448z m-385-448c0 213 172 385 385 385 213 0 385-172 385-385 0-213-172-385-385-385-213 0-385 172-385 385z" horiz-adv-x="1000" />

<glyph glyph-name="close-square" unicode="&#xe837;" d="M434 450c-12 13-32 13-44 0-13-12-13-32 0-44l66-66-66-66c-13-13-13-32 0-45 12-12 32-12 44 0l66 67 66-67c13-12 32-12 45 0 12 13 12 32 0 45l-67 66 67 66c12 12 12 32 0 44-13 13-32 13-45 0l-66-66-66 66z m252 301c-48 5-108 5-184 5h-4c-76 0-136 0-184-5-48-5-88-16-121-40-21-15-39-33-53-53-25-34-36-73-41-122-5-48-5-108-5-184v-4c0-76 0-136 5-184 5-48 16-88 41-121 14-21 32-39 53-54 33-24 73-35 121-40 48-5 108-5 184-5h4c76 0 136 0 184 5 49 5 88 16 122 40 20 15 38 33 53 54 24 33 35 73 40 121 5 48 5 108 5 184v4c0 76 0 136-5 184-5 49-16 88-40 122-15 20-33 38-53 53-34 24-73 35-122 40z m-457-91c21 15 49 24 92 29 44 5 100 5 179 5 79 0 135 0 179-5 44-5 71-14 92-29 15-11 28-24 39-39 15-21 24-48 29-92 5-44 5-100 5-179 0-79 0-135-5-179-5-43-14-71-29-92-11-15-24-28-39-39-21-15-48-24-92-29-44-5-100-5-179-5-79 0-135 0-179 5-43 5-71 14-92 29-15 11-28 24-39 39-15 21-24 49-29 92-5 44-5 100-5 179 0 79 0 135 5 179 5 44 14 71 29 92 11 15 24 28 39 39z" horiz-adv-x="1000" />

<glyph glyph-name="close" unicode="&#xe838;" d="M814 620c12 12 12 32 0 44-12 12-32 12-44 0l-270-270-270 270c-12 12-32 12-44 0-12-12-12-32 0-44l270-270-270-270c-12-12-12-32 0-44 12-12 32-12 44 0l270 270 270-270c12-12 32-12 44 0 12 12 12 32 0 44l-270 270 270 270z" horiz-adv-x="1000" />

<glyph glyph-name="color-picker" unicode="&#xe839;" d="M560 746c26 9 52 14 78 6 13-4 25-11 36-19 21-17 32-42 38-69 7-26 11-60 16-102l2-19c3-26 4-33 7-39 0-1 1-3 2-5 3-6 8-11 27-29l33-32c33-32 43-81 26-123-25-64-102-91-162-56l-79 45-103-193c-5-10-8-16-12-22-7-11-14-22-23-32-4-5-9-10-17-18l-1-2c-38-38-67-68-89-89-12-11-22-20-32-27-9-6-20-13-31-15-60-15-121 20-138 79-3 11-3 24-2 35 1 12 4 25 7 40 7 30 19 71 34 122l0 2c3 11 5 18 7 25 5 12 10 24 16 35 4 6 7 12 13 22l116 186-79 45c-60 35-75 114-32 168 28 36 75 52 119 39l42-12c26-7 32-8 39-8 3 0 6 0 9 1 6 1 12 4 36 16l2 1c38 19 69 35 95 44z m21-59c-22-8-49-22-90-42-1-1-2-1-3-2-19-9-34-17-50-20-6-1-13-2-20-2-16 0-32 5-52 10-1 1-3 1-4 1l-41 12c-20 6-41-1-54-17-19-25-12-60 14-76l414-238c26-16 61-4 72 25 8 19 3 41-12 55l-33 33c-1 1-2 1-3 2-14 15-26 26-34 40-2 4-4 8-6 12-6 15-8 31-11 52 0 1 0 2 0 3l-2 18c-5 44-9 74-14 97-6 21-12 29-17 34-5 4-10 7-16 8-7 3-17 3-38-5z m-198-267l-116-186c-7-11-10-15-12-20-5-8-8-17-12-26-1-5-3-10-6-22-15-53-26-91-33-120-3-14-5-24-6-32 0-4 0-7 0-9 0-2 0-3 0-3 8-27 36-43 63-36 0 0 1 0 2 1 2 1 5 3 8 5 6 5 14 12 25 21 21 20 49 49 87 89 9 9 13 12 16 16 6 7 12 15 17 23 2 5 5 9 11 20l103 194-147 85z" horiz-adv-x="1000" />

<glyph glyph-name="crop-1" unicode="&#xe83a;" d="M190 767c0 17-14 31-31 31-17 0-31-14-31-31v-45h-45c-17 0-31-14-31-31 0-17 14-31 31-31h45l0-237c0-96 0-171 8-230 8-60 25-108 62-145 37-37 85-54 145-62 59-8 134-8 230-8h237l0-45c0-17 14-31 31-31 17 0 31 14 31 31l0 45h45c17 0 31 14 31 31 0 17-14 31-31 31h-45v237c0 96 0 171-8 230-6 48-18 88-42 121l96 96c12 12 12 32 0 44-12 12-32 12-44 0l-96-96c-33 24-73 36-121 42-59 8-134 8-230 8l-237 0v45z m8-566c-8 55-8 126-8 225v234h234c99 0 171 0 225-8 36-5 63-13 84-25l-510-510c-12 21-20 48-25 84z m69-128l510 510c12-21 20-48 25-84 8-54 8-126 8-225v-234h-234c-99 0-170 0-225 8-36 5-63 13-84 25z" horiz-adv-x="1000" />

<glyph glyph-name="crop-2" unicode="&#xe83b;" d="M190 767c0 17-14 31-31 31-17 0-31-14-31-31v-45h-45c-17 0-31-14-31-31 0-17 14-31 31-31h45l0-237c0-96 0-171 8-230 8-60 25-108 62-145 37-37 85-54 145-62 59-8 134-8 230-8h237l0-45c0-17 14-31 31-31 17 0 31 14 31 31l0 45h45c17 0 31 14 31 31 0 17-14 31-31 31h-45v237c0 96 0 171-8 230-8 60-25 108-62 145-37 37-85 54-145 62-59 8-134 8-230 8l-237 0v45z m8-566c-8 55-8 126-8 225v234h234c99 0 171 0 225-8 53-7 85-20 109-44 24-24 37-56 44-109 8-54 8-126 8-225v-234h-234c-99 0-170 0-225 8-53 7-85 21-109 44-23 24-37 56-44 109z" horiz-adv-x="1000" />

<glyph glyph-name="crop-3" unicode="&#xe83c;" d="M500 465c-63 0-115-52-115-115 0-63 52-115 115-115 63 0 115 52 115 115 0 63-52 115-115 115z m-52-115c0 29 23 52 52 52 29 0 52-23 52-52 0-29-23-52-52-52-29 0-52 23-52 52z m-258 417c0 17-14 31-31 31-17 0-31-14-31-31v-45h-45c-17 0-31-14-31-31 0-17 14-31 31-31h45l0-237c0-96 0-171 8-230 8-60 25-108 62-145 37-37 85-54 145-62 59-8 134-8 230-8h237l0-45c0-17 14-31 31-31 17 0 31 14 31 31l0 45h45c17 0 31 14 31 31 0 17-14 31-31 31h-45v237c0 96 0 171-8 230-8 60-25 108-62 145-37 37-85 54-145 62-59 8-134 8-230 8l-237 0v45z m8-566c-8 55-8 126-8 225v234h234c99 0 171 0 225-8 53-7 85-20 109-44 24-24 37-56 44-109 8-54 8-126 8-225v-234h-234c-99 0-170 0-225 8-53 7-85 21-109 44-23 24-37 56-44 109z" horiz-adv-x="1000" />

<glyph glyph-name="cup-of-tea" unicode="&#xe83d;" d="M253 433c0 23 19 42 42 42h11 62 10c23 0 42-19 42-42v-83c0-23-19-42-42-42h-83c-23 0-42 19-42 42v83z m28 389c-7 16-26 22-42 14-15-7-21-26-13-42l2-4c7-15 7-32 0-47l-2-4c-8-15-2-34 13-42 16-8 35-1 42 14l3 4c16 33 16 71 0 103l-3 4z m334 0c-8 16-27 22-42 14-16-7-22-26-14-42l2-4c7-15 7-32 0-47l-2-4c-8-15-2-34 14-42 15-8 34-1 42 14l2 4c16 33 16 71 0 103l-2 4z m-167-28c8 16 2 35-14 42-15 8-34 2-42-14l-2-4c-16-32-16-70 0-103l2-4c8-15 27-22 42-14 16 8 22 27 14 42l-2 4c-7 15-7 32 0 47l2 4z m132-132c-35 11-80 11-153 11l-7 0c-34 0-62 0-84-1-30-1-54-3-76-10-87-28-151-104-164-194-6-37 2-81 14-153l37-225c5-28 7-44 12-59 27-91 105-157 199-169 15-2 32-2 60-2h5c27 0 44 0 59 2 94 12 172 78 199 169 5 15 8 31 12 59l4 21c5 0 10-1 15-1 86 0 156 70 156 157 0 74-52 137-122 152 1 18 1 34-1 49-13 90-77 166-165 194z m-160-52c83 0 116 0 141-8 65-20 112-76 122-143 2-15 1-33-3-63-3-21-7-46-12-78l-36-216c-5-30-7-43-10-53-21-67-78-116-148-125-10-1-23-1-54-1-31 0-43 0-54 1-70 9-127 58-147 125-3 10-6 23-11 53l-36 216c-13 81-18 115-15 141 10 67 57 123 122 143 7 2 16 4 27 5l0-132h7c0 0 3 0 20 0 18 0 21 0 21 0h14l0 135c15 0 32 0 52 0z m292-437c-2 0-3 0-5 0l23 135c3 18 5 34 8 49 39-11 68-47 68-90 0-52-42-94-94-94z" horiz-adv-x="1000" />

<glyph glyph-name="cup" unicode="&#xe83e;" d="M284 439c-3 17-19 28-36 25-17-3-28-19-25-36l43-246c3-17 19-29 36-26 17 3 29 20 26 37l-44 246z m129 317c-73 0-117 0-153-11-87-28-151-103-164-194-6-37 2-81 14-153l37-225c5-27 7-44 12-59 27-90 105-156 199-168 15-2 32-2 60-2h5c27 0 44 0 59 2 94 12 172 78 199 168 5 15 8 32 12 59l4 22c5-1 10-1 15-1 86 0 156 70 156 156 0 75-52 137-122 153 1 18 1 33-1 48-13 91-77 166-165 194-35 11-80 11-153 11h-14z m299-500c-2 0-3 0-5 0l24 142c2 15 5 29 7 42 39-11 68-47 68-90 0-52-42-94-94-94z m-433 429c25 8 59 9 141 9 83 0 116-1 141-9 65-20 112-76 122-143 4-26-2-59-15-141l-36-215c-5-31-7-43-10-54-21-67-78-115-148-124-10-2-23-2-54-2-31 0-43 0-54 2-70 9-127 57-147 124-3 11-6 23-11 54l-36 215c-13 82-18 115-15 141 10 67 57 123 122 143z" horiz-adv-x="1000" />

<glyph glyph-name="danger-circle" unicode="&#xe83f;" d="M542 183c0-23-19-41-42-41-23 0-42 18-42 41 0 23 19 42 42 42 23 0 42-19 42-42z m-11 375c0 18-14 32-31 32-17 0-31-14-31-32v-250c0-17 14-31 31-31 17 0 31 14 31 31v250z m-31 240c-247 0-448-201-448-448 0-247 201-448 448-448 247 0 448 201 448 448 0 247-201 448-448 448z m-385-448c0 213 172 385 385 385 213 0 385-172 385-385 0-213-172-385-385-385-213 0-385 172-385 385z" horiz-adv-x="1000" />

<glyph glyph-name="danger-triangle" unicode="&#xe840;" d="M531 558c0 18-14 32-31 32-17 0-31-14-31-32v-250c0-17 14-31 31-31 17 0 31 14 31 31v250z m67 219c-63 28-133 28-195 0-39-17-70-50-103-96-32-46-68-108-115-189l-2-3c-46-81-82-143-106-194-23-51-36-94-32-137 7-67 43-129 98-169 34-24 78-35 134-40 56-5 128-5 221-5h4c93 0 165 0 221 5 56 5 100 16 134 40 55 40 91 102 98 169 4 43-9 86-32 137-24 51-60 113-106 194l-2 3c-47 81-83 143-115 189-32 46-64 79-102 96z m-170-57c46 21 98 21 144 0 23-10 46-32 77-75 30-43 65-103 113-186 47-82 82-142 104-190 22-48 29-79 27-104-6-50-32-95-72-125-21-15-51-24-104-29-52-5-122-5-217-5-95 0-165 0-217 5-53 5-83 14-104 29-40 30-66 75-72 125-2 25 5 56 27 104 22 48 57 108 104 190 48 83 83 143 113 186 31 43 54 65 77 75z m114-537c0-23-19-41-42-41-23 0-42 18-42 41 0 23 19 42 42 42 23 0 42-19 42-42z" horiz-adv-x="1000" />

<glyph glyph-name="delete-1" unicode="&#xe841;" d="M500 798c-109 0-198-89-198-198v-10h-135c-18 0-32-14-32-32 0-17 14-31 32-31h666c18 0 32 14 32 31 0 18-14 32-32 32h-135v10c0 109-89 198-198 198z m0-63c75 0 135-60 135-135v-10h-270v10c0 75 60 135 135 135z m-261-257c-1 17-16 30-34 28-17-1-29-17-28-34 4-41 11-92 20-158l12-84c11-81 18-127 32-164 25-70 71-126 130-151 31-13 68-13 122-13h14c54 0 91 0 123 13 58 25 104 81 130 151 13 37 20 83 31 164l12 84c9 66 16 117 20 158 1 17-11 33-28 34-18 2-33-11-34-28-4-40-11-90-20-156l-11-79c-12-87-18-125-29-156-22-58-57-98-96-114-19-8-41-8-105-8-64 0-86 0-105 8-39 16-74 56-96 114-11 31-17 69-29 156l-11 79c-9 66-16 116-20 156z" horiz-adv-x="1000" />

<glyph glyph-name="delete-2" unicode="&#xe842;" d="M500 798c-109 0-198-89-198-198v-10h-135c-18 0-32-14-32-32 0-17 14-31 32-31h666c18 0 32 14 32 31 0 18-14 32-32 32h-135v10c0 109-89 198-198 198z m0-63c75 0 135-60 135-135v-10h-270v10c0 75 60 135 135 135z m-261-257c-1 17-16 30-34 28-17-1-29-17-28-34 4-41 11-92 20-158l12-84c11-81 18-127 32-164 25-70 71-126 130-151 31-13 68-13 122-13h14c54 0 91 0 123 13 58 25 104 81 130 151 13 37 20 83 31 164l12 84c9 66 16 117 20 158 1 17-11 33-28 34-18 2-33-11-34-28-4-40-11-90-20-156l-11-79c-12-87-18-125-29-156-22-58-57-98-96-114-19-8-41-8-105-8-64 0-86 0-105 8-39 16-74 56-96 114-11 31-17 69-29 156l-11 79c-9 66-16 116-20 156z m209-45c0 18-14 32-31 32-18 0-32-14-32-32v-333c0-17 14-31 32-31 17 0 31 14 31 31v333z m167 0c0 18-14 32-32 32-17 0-31-14-31-32v-333c0-17 14-31 31-31 18 0 32 14 32 31v333z" horiz-adv-x="1000" />

<glyph glyph-name="discount-circle" unicode="&#xe843;" d="M633 439c12 12 12 32 0 44-12 12-32 12-44 0l-236-236c-12-12-12-32 0-44 12-12 32-12 44 0l236 236z m-133 359c-247 0-448-201-448-448 0-247 201-448 448-448 247 0 448 201 448 448 0 247-201 448-448 448z m-385-448c0 213 172 385 385 385 213 0 385-172 385-385 0-213-172-385-385-385-213 0-385 172-385 385z m218 125c0-23 19-42 42-42 23 0 42 19 42 42 0 23-19 42-42 42-23 0-42-19-42-42z m250-250c0-23 19-42 42-42 23 0 42 19 42 42 0 23-19 42-42 42-23 0-42-19-42-42z" horiz-adv-x="1000" />

<glyph glyph-name="discount-shape-1" unicode="&#xe844;" d="M633 439c12 12 12 32 0 44-12 12-32 12-44 0l-236-236c-12-12-12-32 0-44 12-12 32-12 44 0l236 236z m16 296c-43 150-255 150-297 0-14-48-63-76-111-64-151 38-257-145-149-257 35-36 35-92 0-128-108-112-2-295 149-257 48 12 97-16 111-64 42-150 254-150 297 0 13 48 62 76 110 64 151-38 257 145 149 257-35 36-35 92 0 128 108 112 2 295-149 257-48-12-97 16-110 64z m-237-17c25 89 151 89 176 0 23-80 106-128 187-107 89 22 152-87 88-154-58-59-58-154 0-214 64-67 1-176-88-154-81 21-164-27-187-107-25-89-151-89-176 0-23 80-106 128-186 107-90-22-153 87-89 154 58 60 58 155 0 214-64 67-1 176 89 154 80-21 163 27 186 107z m-79-243c0-23 19-42 42-42 23 0 42 19 42 42 0 23-19 42-42 42-23 0-42-19-42-42z m250-250c0-23 19-42 42-42 23 0 42 19 42 42 0 23-19 42-42 42-23 0-42-19-42-42z" horiz-adv-x="1000" />

<glyph glyph-name="discount-shape-2" unicode="&#xe845;" d="M333 475c0-23 19-42 42-42 23 0 42 19 42 42 0 23-19 42-42 42-23 0-42-19-42-42z m250-250c0-23 19-42 42-42 23 0 42 19 42 42 0 23-19 42-42 42-23 0-42-19-42-42z m50 214c12 12 12 32 0 44-12 12-32 12-44 0l-236-236c-12-12-12-32 0-44 12-12 32-12 44 0l236 236z m-5 336c-34 3-75 3-126 3h-3c-52 0-93 0-127-3-34-3-63-9-90-23-7-4-14-8-21-12-25-17-45-38-65-67-20-27-40-63-66-108l-2-2c-25-45-46-80-60-111-15-31-23-60-25-90 0-8 0-16 0-24 2-30 10-59 25-90 14-30 35-66 60-111l2-2c26-45 46-81 66-108 20-29 40-50 65-67 7-4 14-8 21-12 27-14 56-20 90-23 34-3 75-3 127-3h3c51 0 92 0 126 3 34 3 63 9 90 23 7 4 14 8 21 12 26 17 45 38 65 67 20 27 40 63 66 108l2 2c26 45 46 81 60 111 15 31 24 60 25 90 0 8 0 16 0 24-1 30-10 59-25 90-14 31-34 66-60 111l-2 2c-26 45-46 81-66 108-20 29-39 50-65 67-7 4-14 8-21 12-27 14-56 20-90 23z m-318-79c18 9 38 14 68 17 30 3 68 3 122 3 54 0 92 0 122-3 30-3 50-8 68-17 5-2 10-5 15-9 17-10 31-25 48-50 18-25 37-58 64-104 27-47 46-80 58-107 13-27 19-47 20-67 0-6 0-12 0-18-1-19-7-39-20-67-12-27-31-60-58-107-27-46-46-79-64-104-17-25-31-40-48-50-5-3-10-6-15-9-18-9-38-14-68-17-30-3-68-3-122-3-54 0-92 0-122 3-30 3-50 8-68 17-5 3-10 6-15 9-16 10-31 25-48 50-18 25-37 58-64 104-26 47-46 80-58 107-13 28-19 48-20 67 0 6 0 12 0 18 1 20 7 40 20 67 12 27 32 60 58 107 27 46 46 79 64 104 17 25 32 40 48 50 5 4 10 7 15 9z" horiz-adv-x="1000" />

<glyph glyph-name="discount-shape-3" unicode="&#xe846;" d="M333 475c0-23 19-42 42-42 23 0 42 19 42 42 0 23-19 42-42 42-23 0-42-19-42-42z m250-250c0-23 19-42 42-42 23 0 42 19 42 42 0 23-19 42-42 42-23 0-42-19-42-42z m50 214c12 12 12 32 0 44-12 12-32 12-44 0l-236-236c-12-12-12-32 0-44 12-12 32-12 44 0l236 236z m-121 368c-8 1-16 1-24 0-30-1-59-10-90-25-30-14-66-34-111-60l-2-2c-45-26-81-46-108-66-28-20-50-39-67-65-4-7-8-14-12-21-14-27-20-56-23-90-3-34-3-75-3-126v-3c0-52 0-93 3-127 3-34 9-63 23-90 4-7 8-14 12-21 17-25 39-45 67-65 27-20 63-40 108-66l2-2c45-26 81-46 111-60 31-15 60-24 90-25 8 0 16 0 24 0 30 1 59 10 90 25 31 14 66 34 111 60l2 2c45 26 81 46 108 66 29 20 50 40 67 65 4 7 8 14 12 21 14 27 20 56 23 90 3 34 3 75 3 127v3c0 51 0 92-3 126-3 34-9 63-23 90-4 7-8 14-12 21-17 26-38 45-67 65-27 20-63 40-108 66l-2 2c-45 26-80 46-111 60-31 15-60 24-90 25z m-21-62c6 0 12 0 18 0 20-1 40-7 67-20 27-12 60-31 107-58 46-27 79-46 104-64 25-17 40-31 50-48 4-5 7-10 9-15 9-18 14-38 17-68 3-30 3-68 3-122 0-54 0-92-3-122-3-30-8-50-17-68-2-5-5-10-9-15-10-16-25-31-50-48-25-18-58-37-104-64-47-26-80-46-107-58-27-13-47-19-67-20-6 0-12 0-18 0-19 1-39 7-67 20-27 12-60 32-107 58-46 27-79 46-104 64-25 17-40 32-50 48-4 5-6 10-9 15-9 18-14 38-17 68-3 30-3 68-3 122 0 54 0 92 3 122 3 30 8 50 17 68 3 5 5 10 9 15 10 17 25 31 50 48 25 18 58 37 104 64 47 27 80 46 107 58 28 13 48 19 67 20z" horiz-adv-x="1000" />

<glyph glyph-name="discount-square" unicode="&#xe847;" d="M333 475c0-23 19-42 42-42 23 0 42 19 42 42 0 23-19 42-42 42-23 0-42-19-42-42z m250-250c0-23 19-42 42-42 23 0 42 19 42 42 0 23-19 42-42 42-23 0-42-19-42-42z m50 214c12 12 12 32 0 44-12 12-32 12-44 0l-236-236c-12-12-12-32 0-44 12-12 32-12 44 0l236 236z m53 312c-48 5-108 5-184 5h-4c-76 0-136 0-184-5-48-5-88-16-121-40-21-15-39-33-53-53-25-34-36-73-41-122-5-48-5-108-5-184v-4c0-76 0-136 5-184 5-48 16-88 41-121 14-21 32-39 53-54 33-24 73-35 121-40 48-5 108-5 184-5h4c76 0 136 0 184 5 49 5 88 16 122 40 20 15 38 33 53 54 24 33 35 73 40 121 5 48 5 108 5 184v4c0 76 0 136-5 184-5 49-16 88-40 122-15 20-33 38-53 53-34 24-73 35-122 40z m-457-91c21 15 49 24 92 29 44 5 100 5 179 5 79 0 135 0 179-5 44-5 71-14 92-29 15-11 28-24 39-39 15-21 24-48 29-92 5-44 5-100 5-179 0-79 0-135-5-179-5-43-14-71-29-92-11-15-24-28-39-39-21-15-48-24-92-29-44-5-100-5-179-5-79 0-135 0-179 5-43 5-71 14-92 29-15 11-28 24-39 39-15 21-24 49-29 92-5 44-5 100-5 179 0 79 0 135 5 179 5 44 14 71 29 92 11 15 24 28 39 39z" horiz-adv-x="1000" />

<glyph glyph-name="discovery-1" unicode="&#xe848;" d="M658 412c24 60-36 120-96 96l-111-46c-28-12-51-34-63-63l-45-111c-25-60 35-120 95-95l111 45c29 12 51 35 63 63l46 111z m-72 38c9 3 17-5 14-14l-46-111c-5-13-16-23-29-29l-111-46c-9-3-17 5-14 14l46 111c6 13 16 24 29 29l111 46z m42 325c-34 3-75 3-126 3h-3c-52 0-93 0-127-3-34-3-63-9-90-23-7-4-14-8-21-12-25-17-45-38-65-67-20-27-40-63-66-108l-1-2c-26-45-47-80-61-111-15-31-23-60-25-90 0-8 0-16 0-24 2-30 10-59 25-90 14-30 35-66 60-111l2-2c26-45 46-81 66-108 20-29 40-50 65-67 7-4 14-8 21-12 27-14 56-20 90-23 34-3 75-3 127-3h3c51 0 92 0 126 3 34 3 63 9 90 23 7 4 14 8 21 12 26 17 45 38 65 67 20 27 40 63 66 108l2 2c26 45 46 81 60 111 15 31 24 60 25 90 0 8 0 16 0 24-1 30-10 59-25 90-14 31-34 66-60 111l-2 2c-26 45-46 81-66 108-20 29-39 50-65 67-7 4-14 8-21 12-27 14-56 20-90 23z m-318-79c18 9 38 14 68 17 30 3 68 3 122 3 54 0 92 0 122-3 30-3 50-8 68-17 5-2 10-5 15-9 17-10 31-25 48-50 18-25 37-58 64-104 27-47 46-80 58-107 13-27 19-47 20-67 0-6 0-12 0-18-1-19-7-39-20-67-12-27-31-60-58-107-27-46-46-79-64-104-17-25-31-40-48-50-5-3-10-6-15-9-18-9-38-14-68-17-30-3-68-3-122-3-54 0-92 0-122 3-30 3-50 8-68 17-5 3-10 6-15 9-16 10-31 25-48 50-18 25-37 58-64 104-26 47-46 80-58 107-13 28-19 48-20 67 0 6 0 12 0 18 1 20 7 40 20 67 12 27 32 60 58 107 27 46 46 79 64 104 17 25 32 40 48 50 5 4 10 7 15 9z" horiz-adv-x="1000" />

<glyph glyph-name="discovery-2" unicode="&#xe849;" d="M658 412c24 60-36 120-96 96l-111-46c-28-12-51-34-63-63l-45-111c-25-60 35-120 95-95l111 45c29 12 51 35 63 63l46 111z m-72 38c9 3 17-5 14-14l-46-111c-5-13-16-23-29-29l-111-46c-9-3-17 5-14 14l46 111c6 13 16 24 29 29l111 46z m-74 357c-8 1-16 1-24 0-30-1-59-10-90-25-30-14-66-34-111-60l-2-2c-45-26-81-46-108-66-28-20-50-39-67-65-4-7-8-14-12-21-14-27-20-56-23-90-3-34-3-75-3-126v-3c0-52 0-93 3-127 3-34 9-63 23-90 4-7 8-14 12-21 17-25 39-45 67-65 27-20 63-40 108-66l2-2c45-26 81-46 111-60 31-15 60-24 90-25 8 0 16 0 24 0 30 1 59 10 90 25 31 14 66 34 111 60l2 2c45 26 81 46 108 66 29 20 50 40 67 65 4 7 8 14 12 21 14 27 20 56 23 90 3 34 3 75 3 127v3c0 51 0 92-3 126-3 34-9 63-23 90-4 7-8 14-12 21-17 26-38 45-67 65-27 20-63 40-108 66l-2 2c-45 26-80 46-111 60-31 15-60 24-90 25z m-21-62c6 0 12 0 18 0 20-1 40-7 67-20 27-12 60-31 107-58 46-27 79-46 104-64 25-17 40-31 50-48 4-5 7-10 9-15 9-18 14-38 17-68 3-30 3-68 3-122 0-54 0-92-3-122-3-30-8-50-17-68-2-5-5-10-9-15-10-16-25-31-50-48-25-18-58-37-104-64-47-26-80-46-107-58-27-13-47-19-67-20-6 0-12 0-18 0-19 1-39 7-67 20-27 12-60 32-107 58-46 27-79 46-104 64-25 17-40 32-50 48-3 5-6 10-9 15-9 18-14 38-17 68-3 30-3 68-3 122 0 54 0 92 3 122 3 30 8 50 17 68 3 5 6 10 9 15 10 17 25 31 50 48 25 18 58 37 104 64 47 27 80 46 107 58 28 13 48 19 67 20z" horiz-adv-x="1000" />

<glyph glyph-name="dislike" unicode="&#xe84a;" d="M229 715c-75 0-135-61-135-136v-333c0-75 60-136 135-136 52 0 97 30 120 72 3-6 7-12 12-19l95-155c16-27 46-43 78-43 56 0 99 50 90 105l-10 66c-8 52 33 99 86 99h28c129 0 213 136 155 251l-47 96c-41 81-124 133-215 133h-121c-61 0-115-28-152-71-23 42-67 71-119 71z m73-136c0 40-33 73-73 73-40 0-73-33-73-73v-333c0-40 33-73 73-73 40 0 73 33 73 73v333z m67-293c-4 19-4 39-4 88v143c0 75 60 135 135 135h121c67 0 129-38 159-98l48-95c36-74-17-161-100-161h-28c-92 0-161-81-148-171l11-66c2-18-11-34-29-34-10 0-20 5-25 14l-93 151c-26 42-36 59-42 77-2 6-4 11-5 17z" horiz-adv-x="1000" />

<glyph glyph-name="display-1" unicode="&#xe84b;" d="M750 152c17 0 31 14 31 31 0 18-14 32-31 32l-250 0c-17 0-31-14-31-32 0-17 14-31 31-31l250 0z m14 601c-36 3-80 3-138 3h-252c-58 0-102 0-138-3-37-3-67-9-95-23-45-23-81-59-104-105-14-27-21-57-24-94-3-36-3-81-3-138v-3c0-57 0-102 3-138 3-36 10-67 24-94 23-45 59-82 104-105 28-14 58-20 95-23 36-3 80-3 138-3h95v-76c-26-2-52-6-78-13l-65-16c-17-4-27-21-23-38 4-17 21-27 38-23l66 17c30 7 62 11 93 11 31 0 63-4 94-11l65-17c17-4 34 6 38 23 4 17-6 34-23 38l-65 16c-26 7-52 11-78 13v76h95c58 0 102 0 138 3 37 3 67 9 95 23 45 23 82 60 105 105 13 27 20 58 23 94 3 36 3 81 3 138v3c0 57 0 102-3 138-3 37-10 67-23 94-23 46-60 82-105 105-28 14-58 20-95 23z m-5-661c-33-2-75-2-134-2h-250c-59 0-101 0-134 2-33 3-54 8-71 17-34 17-61 44-78 77-8 17-14 39-16 71-3 34-3 76-3 135 0 59 0 101 3 134 2 33 8 54 16 71 17 33 44 61 78 77 17 9 38 14 71 17 33 3 75 3 134 3h250c59 0 101 0 134-3 33-3 54-8 71-17 34-16 61-44 78-77 9-17 14-38 16-71 3-33 3-75 3-134 0-59 0-101-3-135-2-32-7-54-16-71-17-33-44-60-78-77-17-9-38-14-71-17z m-426 91c0-23-18-41-41-41-23 0-42 18-42 41 0 23 19 42 42 42 23 0 41-19 41-42z" horiz-adv-x="1000" />

<glyph glyph-name="display-2" unicode="&#xe84c;" d="M837 779c-223 40-451 40-674 0-88-16-153-93-153-183v-347c0-120 106-212 225-196 77 11 156 17 234 18v-120c-26-2-52-6-78-13l-65-16c-17-4-27-21-23-38 4-17 21-27 38-23l66 17c30 7 62 11 93 11 31 0 63-4 94-11l65-17c17-4 34 6 38 23 4 17-6 34-23 38l-65 16c-26 7-52 11-78 13v120c79-1 157-7 234-18 119-16 225 76 225 196v347c0 90-65 167-153 183z m-663-62c216 40 436 40 652 0 59-10 101-61 101-121v-347c0-82-72-145-153-134-91 12-182 19-274 19-91 0-183-7-274-19-81-11-153 52-153 134v347c0 60 43 111 101 121z" horiz-adv-x="1000" />

<glyph glyph-name="display-3" unicode="&#xe84d;" d="M706 754c-33 2-73 2-124 2h-164c-51 0-91 0-124-2-33-3-60-8-86-20-42-19-78-51-102-90-15-24-24-51-30-84-7-31-12-71-18-122l-1-3c-8-63-14-113-15-153-2-40 1-74 14-105 20-51 57-93 105-120 29-16 62-23 103-26 40-4 90-4 154-4h51v-76c-26-2-52-6-78-13l-65-16c-17-4-27-21-23-38 4-17 21-27 38-23l66 17c30 7 62 11 93 11 31 0 63-4 94-11l65-17c17-4 34 6 38 23 4 17-6 34-23 38l-65 16c-26 7-52 11-78 13v76h51c64 0 114 0 154 4 41 3 74 10 103 26 48 27 85 69 106 120 12 31 15 65 13 105-1 40-7 90-15 153l-1 3c-6 51-11 91-17 122-7 33-16 60-31 84-24 39-60 71-102 90-26 12-53 17-86 20z m25-661c-37-3-84-3-150-3h-162c-65 0-113 0-150 3-36 3-59 9-78 19-35 20-62 51-77 88-8 20-11 43-10 80 2 37 7 84 16 149 6 52 11 90 17 119 6 29 12 47 22 63 18 29 44 52 76 66 16 8 35 12 64 14 30 3 68 3 120 3h162c52 0 90 0 120-3 29-2 48-6 65-14 31-14 57-37 75-66 10-16 16-34 22-63 6-29 11-67 18-119 8-65 14-112 15-149 1-37-2-60-9-80-16-37-43-68-78-88-18-10-42-16-78-19z" horiz-adv-x="1000" />

<glyph glyph-name="display-4" unicode="&#xe84e;" d="M764 753c-36 3-80 3-138 3h-252c-58 0-102 0-138-3-37-3-67-9-95-23-45-23-81-59-104-105-14-27-21-57-24-94-3-36-3-81-3-138v-3c0-57 0-102 3-138 3-36 10-67 24-94 23-45 59-82 104-105 28-14 58-20 95-23 36-3 80-3 138-3h95v-76c-26-2-52-6-78-13l-65-16c-17-4-27-21-23-38 4-17 21-27 38-23l66 17c30 7 62 11 93 11 31 0 63-4 94-11l65-17c17-4 34 6 38 23 4 17-6 34-23 38l-65 16c-26 7-52 11-78 13v76h95c58 0 102 0 138 3 37 3 67 9 95 23 45 23 82 60 105 105 13 27 20 58 23 94 3 36 3 81 3 138v3c0 57 0 102-3 138-3 37-10 67-23 94-23 46-60 82-105 105-28 14-58 20-95 23z m-5-661c-33-2-75-2-134-2h-250c-59 0-101 0-134 2-33 3-54 8-71 17-34 17-61 44-78 77-8 17-14 39-16 71-3 34-3 76-3 135 0 59 0 101 3 134 2 33 8 54 16 71 17 33 44 61 78 77 17 9 38 14 71 17 33 3 75 3 134 3h250c59 0 101 0 134-3 33-3 54-8 71-17 34-16 61-44 78-77 9-17 14-38 16-71 3-33 3-75 3-134 0-59 0-101-3-135-2-32-7-54-16-71-17-33-44-60-78-77-17-9-38-14-71-17z" horiz-adv-x="1000" />

<glyph glyph-name="document--add-1" unicode="&#xe84f;" d="M490 433c0 18-14 32-32 32-17 0-31-14-31-32v-93h-94c-17 0-31-14-31-32 0-17 14-31 31-31h94v-94c0-17 14-31 31-31 18 0 32 14 32 31v94h93c18 0 32 14 32 31 0 18-14 32-32 32h-93v93z m136 322c-36 1-77 1-125 1h-3c-76 0-136 0-184-5-48-5-88-16-121-40-21-15-39-33-53-53-25-34-36-73-41-122-5-48-5-108-5-184v-4c0-76 0-136 5-184 5-48 16-88 41-121 14-21 32-39 53-54 33-24 73-35 121-40 48-5 108-5 184-5h4c76 0 136 0 184 5 49 5 88 16 122 40 20 15 38 33 53 54 24 33 35 73 40 121 5 48 5 108 5 184v3c0 48 0 89-1 125-3 78-11 136-44 182-15 20-33 38-53 53-46 33-104 41-182 44z m-397-95c21 15 49 24 92 29 44 5 100 5 179 5 35 0 66 0 94-1 0-19 1-34 3-47 16-103 96-183 199-199 13-2 28-3 47-3 1-28 1-59 1-94 0-79 0-135-5-179-5-43-14-71-29-92-11-15-24-28-39-39-21-15-48-24-92-29-44-5-100-5-179-5-79 0-135 0-179 5-43 5-71 14-92 29-15 11-28 24-39 39-15 21-24 49-29 92-5 44-5 100-5 179 0 79 0 135 5 179 5 44 14 71 29 92 11 15 24 28 39 39z m429-4c-1 8-1 18-2 35 57-4 90-13 115-31 15-11 28-24 39-39 18-25 27-58 31-115-17 1-27 1-35 2-76 12-136 72-148 148z" horiz-adv-x="1000" />

<glyph glyph-name="document--align-center-2" unicode="&#xe850;" d="M333 465c-17 0-31-14-31-32 0-17 14-31 31-31h334c17 0 31 14 31 31 0 18-14 32-31 32h-334z m84-167c-18 0-32-14-32-31 0-18 14-32 32-32h166c18 0 32 14 32 32 0 17-14 31-32 31h-166z m-84-167c-17 0-31-14-31-31 0-17 14-31 31-31h334c17 0 31 14 31 31 0 17-14 31-31 31h-334z m449 636c-32 17-69 24-114 27-44 4-99 4-167 4h-2c-59 0-109 0-150-2-41-3-76-7-106-18-18-6-35-15-50-26-21-15-39-32-53-53-25-33-36-73-41-121-5-48-5-108-5-184v-87c0-77 0-137 5-185 5-48 16-88 41-121 14-21 32-38 53-53 33-25 73-36 121-41 48-5 108-5 184-5h4c76 0 136 0 184 5 49 5 88 16 122 41 20 15 38 32 53 53 24 33 35 73 40 121 5 48 5 108 5 184v88c0 76 0 136-5 184-5 48-16 88-40 121-15 21-33 38-53 53-8 6-17 11-26 15z m-282-32c69 0 122 0 163-3 18-1 34-3 47-6-34-34-61-59-86-79-32-25-56-37-81-41-18-3-37-3-55 0-26 4-51 17-85 44-25 19-52 46-87 80 11 1 23 2 37 3 39 2 87 2 147 2z m163-137c32 25 67 59 110 102 14-11 27-23 37-38 15-21 24-48 29-91 5-44 5-100 5-179v-84c0-78 0-135-5-179-5-43-14-70-29-91-11-15-24-29-39-40-21-15-48-24-92-29-44-4-100-4-179-4-79 0-135 0-179 4-43 5-71 14-92 29-15 11-28 25-39 40-15 21-24 48-29 91-5 44-5 101-5 179v84c0 79 0 135 5 179 5 43 14 70 29 91 11 16 24 29 39 40 5 3 11 7 17 10 47-47 84-84 118-111 38-30 73-50 114-57 25-4 50-4 75 0 39 7 74 26 110 54z" horiz-adv-x="1000" />

<glyph glyph-name="document--align-left-2" unicode="&#xe851;" d="M302 433c0 18 14 32 31 32h125c18 0 32-14 32-32 0-17-14-31-32-31h-125c-17 0-31 14-31 31z m0-166c0 17 14 31 31 31h334c17 0 31-14 31-31 0-18-14-32-31-32h-334c-17 0-31 14-31 32z m0-167c0 17 14 31 31 31h125c18 0 32-14 32-31 0-17-14-31-32-31h-125c-17 0-31 14-31 31z m366 694c45-3 82-10 114-27 9-4 18-9 26-15 20-15 38-32 53-53 24-33 35-73 40-121 5-48 5-108 5-184v-88c0-76 0-136-5-184-5-48-16-88-40-121-15-21-33-38-53-53-34-25-73-36-122-41-48-5-108-5-184-5h-4c-76 0-136 0-184 5-48 5-88 16-121 41-21 15-39 32-53 53-25 33-36 73-41 121-5 48-5 108-5 185v87c0 76 0 136 5 184 5 48 16 88 41 121 14 21 32 38 53 53 15 11 32 20 50 26 30 11 65 15 106 18 41 2 91 2 150 2h2c68 0 123 0 167-4z m-5-62c-41 3-94 3-163 3-60 0-108 0-147-2-14-1-26-2-37-3 35-34 62-61 87-80 34-27 59-40 85-44 18-3 37-3 55 0 25 4 49 16 81 41 25 20 52 45 86 79-13 3-29 5-47 6z m110-32c-43-43-78-77-110-102-36-28-71-47-110-54-25-4-50-4-75 0-41 7-76 27-114 57-34 27-71 64-118 111-6-3-12-7-17-10-15-11-28-24-39-40-15-21-24-48-29-91-5-44-5-100-5-179v-84c0-78 0-135 5-179 5-43 14-70 29-91 11-15 24-29 39-40 21-15 49-24 92-29 44-4 100-4 179-4 79 0 135 0 179 4 44 5 71 14 92 29 15 11 28 25 39 40 15 21 24 48 29 91 5 44 5 101 5 179v84c0 79 0 135-5 179-5 43-14 70-29 91-10 15-23 27-37 38z" horiz-adv-x="1000" />

<glyph glyph-name="document--align-right-1" unicode="&#xe852;" d="M510 433c0 18 14 32 32 32h125c17 0 31-14 31-32 0-17-14-31-31-31h-125c-18 0-32 14-32 31z m-208-166c0 17 14 31 31 31h334c17 0 31-14 31-31 0-18-14-32-31-32h-334c-17 0-31 14-31 32z m208-167c0 17 14 31 32 31h125c17 0 31-14 31-31 0-17-14-31-31-31h-125c-18 0-32 14-32 31z m158 694c45-3 82-10 114-27 9-4 18-9 26-15 20-15 38-32 53-53 24-33 35-73 40-121 5-48 5-108 5-184v-88c0-76 0-136-5-184-5-48-16-88-40-121-15-21-33-38-53-53-34-25-73-36-122-41-48-5-108-5-184-5h-4c-76 0-136 0-184 5-48 5-88 16-121 41-21 15-39 32-53 53-25 33-36 73-41 121-5 48-5 108-5 185v87c0 76 0 136 5 184 5 48 16 88 41 121 14 21 32 38 53 53 15 11 32 20 50 26 30 11 65 15 106 18 41 2 91 2 150 2h2c68 0 123 0 167-4z m-5-62c-41 3-94 3-163 3-60 0-108 0-147-2-14-1-26-2-37-3 35-34 62-61 87-80 34-27 59-40 85-44 18-3 37-3 55 0 25 4 49 16 81 41 25 20 52 45 86 79-13 3-29 5-47 6z m110-32c-43-43-78-77-110-102-36-28-71-47-110-54-25-4-50-4-75 0-41 7-76 27-114 57-34 27-71 64-118 111-6-3-12-7-17-10-15-11-28-24-39-40-15-21-24-48-29-91-5-44-5-100-5-179v-84c0-78 0-135 5-179 5-43 14-70 29-91 11-15 24-29 39-40 21-15 49-24 92-29 44-4 100-4 179-4 79 0 135 0 179 4 44 5 71 14 92 29 15 11 28 25 39 40 15 21 24 48 29 91 5 44 5 101 5 179v84c0 79 0 135-5 179-5 43-14 70-29 91-10 15-23 27-37 38z" horiz-adv-x="1000" />

<glyph glyph-name="document--align-left-3" unicode="&#xe853;" d="M302 433c0 18 14 32 31 32h125c18 0 32-14 32-32 0-17-14-31-32-31h-125c-17 0-31 14-31 31z m0-166c0 17 14 31 31 31h334c17 0 31-14 31-31 0-18-14-32-31-32h-334c-17 0-31 14-31 32z m0-167c0 17 14 31 31 31h334c17 0 31-14 31-31 0-17-14-31-31-31h-334c-17 0-31 14-31 31z m366 694c45-3 82-10 114-27 9-4 18-9 26-15 20-15 38-32 53-53 24-33 35-73 40-121 5-48 5-108 5-184v-88c0-76 0-136-5-184-5-48-16-88-40-121-15-21-33-38-53-53-34-25-73-36-122-41-48-5-108-5-184-5h-4c-76 0-136 0-184 5-48 5-88 16-121 41-21 15-39 32-53 53-25 33-36 73-41 121-5 48-5 108-5 185v87c0 76 0 136 5 184 5 48 16 88 41 121 14 21 32 38 53 53 15 11 32 20 50 26 30 11 65 15 106 18 41 2 91 2 150 2h2c68 0 123 0 167-4z m-5-62c-41 3-94 3-163 3-60 0-108 0-147-2-14-1-26-2-37-3 35-34 62-61 87-80 34-27 59-40 85-44 18-3 37-3 55 0 25 4 49 16 81 41 25 20 52 45 86 79-13 3-29 5-47 6z m110-32c-43-43-78-77-110-102-36-28-71-47-110-54-25-4-50-4-75 0-41 7-76 27-114 57-34 27-71 64-118 111-6-3-12-7-17-10-15-11-28-24-39-40-15-21-24-48-29-91-5-44-5-100-5-179v-84c0-78 0-135 5-179 5-43 14-70 29-91 11-15 24-29 39-40 21-15 49-24 92-29 44-4 100-4 179-4 79 0 135 0 179 4 44 5 71 14 92 29 15 11 28 25 39 40 15 21 24 48 29 91 5 44 5 101 5 179v84c0 79 0 135-5 179-5 43-14 70-29 91-10 15-23 27-37 38z" horiz-adv-x="1000" />

<glyph glyph-name="document--justify-left-1" unicode="&#xe854;" d="M302 433c0 18 14 32 31 32h334c17 0 31-14 31-32 0-17-14-31-31-31h-334c-17 0-31 14-31 31z m0-166c0 17 14 31 31 31h334c17 0 31-14 31-31 0-18-14-32-31-32h-334c-17 0-31 14-31 32z m0-167c0 17 14 31 31 31h125c18 0 32-14 32-31 0-17-14-31-32-31h-125c-17 0-31 14-31 31z m366 694c45-3 82-10 114-27 9-4 18-9 26-15 20-15 38-32 53-53 24-33 35-73 40-121 5-48 5-108 5-184v-88c0-76 0-136-5-184-5-48-16-88-40-121-15-21-33-38-53-53-34-25-73-36-122-41-48-5-108-5-184-5h-4c-76 0-136 0-184 5-48 5-88 16-121 41-21 15-39 32-53 53-25 33-36 73-41 121-5 48-5 108-5 185v87c0 76 0 136 5 184 5 48 16 88 41 121 14 21 32 38 53 53 15 11 32 20 50 26 30 11 65 15 106 18 41 2 91 2 150 2h2c68 0 123 0 167-4z m-5-62c-41 3-94 3-163 3-60 0-108 0-147-2-14-1-26-2-37-3 35-34 62-61 87-80 34-27 59-40 85-44 18-3 37-3 55 0 25 4 49 16 81 41 25 20 52 45 86 79-13 3-29 5-47 6z m110-32c-43-43-78-77-110-102-36-28-71-47-110-54-25-4-50-4-75 0-41 7-76 27-114 57-34 27-71 64-118 111-6-3-12-7-17-10-15-11-28-24-39-40-15-21-24-48-29-91-5-44-5-100-5-179v-84c0-78 0-135 5-179 5-43 14-70 29-91 11-15 24-29 39-40 21-15 49-24 92-29 44-4 100-4 179-4 79 0 135 0 179 4 44 5 71 14 92 29 15 11 28 25 39 40 15 21 24 48 29 91 5 44 5 101 5 179v84c0 79 0 135-5 179-5 43-14 70-29 91-10 15-23 27-37 38z" horiz-adv-x="1000" />

<glyph glyph-name="document--minus-3" unicode="&#xe855;" d="M417 298c-18 0-32-14-32-31 0-18 14-32 32-32h250c17 0 31 14 31 32 0 17-14 31-31 31h-250z m391 413c-34 24-73 35-122 40-48 5-108 5-184 5h-2c-49 0-90 0-126-1-78-3-135-11-181-44-21-15-39-33-53-53-34-46-42-104-45-182-1-36-1-77-1-125v-3c0-76 0-136 5-184 5-48 16-88 41-121 14-21 32-39 53-54 33-24 73-35 121-40 48-5 108-5 184-5h4c76 0 136 0 184 5 49 5 88 16 122 40 20 15 38 33 53 54 24 33 35 73 40 121 5 48 5 108 5 184v4c0 76 0 136-5 184-5 49-16 88-40 122-15 20-33 38-53 53z m-308-17c79 0 135 0 179-5 44-5 71-14 92-29 15-11 28-24 39-39 15-21 24-48 29-92 5-44 5-100 5-179 0-79 0-135-5-179-5-43-14-71-29-92-11-15-24-28-39-39-21-15-48-24-92-29-44-5-100-5-179-5-79 0-135 0-179 5-43 5-71 14-92 29-15 11-28 24-39 39-15 21-24 49-29 92-5 44-5 100-5 179 0 35 0 66 1 94 20 0 34 1 47 3 103 16 183 96 199 199 2 13 3 28 3 47 28 1 59 1 94 1z m-306-186c-8-1-18-1-35-2 4 57 13 90 31 115 11 15 24 28 39 39 25 18 58 27 115 31-1-17-1-27-2-35-12-76-72-136-148-148z" horiz-adv-x="1000" />

<glyph glyph-name="document--upload-1" unicode="&#xe856;" d="M491 429c0 1-1 1-1 2v-289c0-18-14-32-32-32-17 0-31 14-31 32v289c0-1-1-1-2-2-13-11-29-27-53-51l-58-58c-12-13-32-13-44 0-13 12-13 31 0 44l59 60c22 22 41 41 57 54 18 14 36 25 58 27 10 2 19 2 29 0 22-2 40-13 58-27 16-13 35-32 57-54l59-60c12-13 12-32 0-44-12-13-32-13-44 0l-58 58c-24 24-40 40-54 51z m135 326c-36 1-77 1-125 1h-3c-76 0-136 0-184-5-48-5-88-16-121-40-21-15-39-33-53-53-25-34-36-73-41-122-5-48-5-108-5-184v-4c0-76 0-136 5-184 5-48 16-88 41-121 14-21 32-39 53-54 33-24 73-35 121-40 48-5 108-5 184-5h4c76 0 136 0 184 5 49 5 88 16 122 40 20 15 38 33 53 54 24 33 35 73 40 121 5 48 5 108 5 184v3c0 48 0 89-1 125-3 78-11 136-44 182-15 20-33 38-53 53-46 33-104 41-182 44z m-397-95c21 15 49 24 92 29 44 5 100 5 179 5 35 0 66 0 94-1 0-19 1-34 3-47 16-103 96-183 199-199 13-2 28-3 47-3 1-28 1-59 1-94 0-79 0-135-5-179-5-43-14-71-29-92-11-15-24-28-39-39-21-15-48-24-92-29-44-5-100-5-179-5-79 0-135 0-179 5-43 5-71 14-92 29-15 11-28 24-39 39-15 21-24 49-29 92-5 44-5 100-5 179 0 79 0 135 5 179 5 44 14 71 29 92 11 15 24 28 39 39z m429-4c-1 8-1 18-2 35 57-4 90-13 115-31 15-11 28-24 39-39 18-25 27-58 31-115-17 1-27 1-35 2-76 12-136 72-148 148z" horiz-adv-x="1000" />

<glyph glyph-name="document-add-2" unicode="&#xe857;" d="M531 433c0 18-14 32-31 32-17 0-31-14-31-32v-93h-94c-17 0-31-14-31-32 0-17 14-31 31-31h94v-94c0-17 14-31 31-31 17 0 31 14 31 31v94h94c17 0 31 14 31 31 0 18-14 32-31 32h-94v93z m95 364c-36 1-77 1-125 1h-3c-76 0-136 0-184-5-48-5-88-16-121-41-21-15-39-32-53-53-25-33-36-73-41-121-5-48-5-108-5-184v-87c0-77 0-137 5-185 5-48 16-88 41-121 14-21 32-38 53-53 33-25 73-36 121-41 48-5 108-5 184-5h4c76 0 136 0 184 5 49 5 88 16 122 41 20 15 38 32 53 53 24 33 35 73 40 121 5 48 5 108 5 184v86c0 49 0 90-1 126-3 78-11 135-44 181-15 21-33 38-53 53-46 34-104 42-182 45z m-397-95c21 15 49 24 92 29 44 4 100 4 179 4 35 0 66 0 94 0 0-20 1-34 3-47 16-103 96-183 199-200 13-2 28-2 47-2 1-28 1-59 1-94v-84c0-78 0-135-5-179-5-43-14-70-29-91-11-15-24-29-39-40-21-15-48-24-92-29-44-4-100-4-179-4-79 0-135 0-179 4-43 5-71 14-92 29-15 11-28 25-39 40-15 21-24 48-29 91-5 44-5 101-5 179v84c0 79 0 135 5 179 5 43 14 70 29 91 11 16 24 29 39 40z m429-5c-1 9-1 19-2 36 57-4 90-13 115-31 15-11 28-24 39-40 18-25 27-57 31-114-17 0-27 1-35 2-76 12-136 72-148 147z" horiz-adv-x="1000" />

<glyph glyph-name="document-add-3" unicode="&#xe858;" d="M573 433c0 18-14 32-31 32-18 0-32-14-32-32v-93h-93c-18 0-32-14-32-32 0-17 14-31 32-31h93v-94c0-17 14-31 32-31 17 0 31 14 31 31v94h94c17 0 31 14 31 31 0 18-14 32-31 32h-94v93z m235 278c-34 24-73 35-122 40-48 5-108 5-184 5h-2c-49 0-90 0-126-1-78-3-135-11-181-44-21-15-39-33-53-53-34-46-42-104-45-182-1-36-1-77-1-125v-3c0-76 0-136 5-184 5-48 16-88 41-121 14-21 32-39 53-54 33-24 73-35 121-40 48-5 108-5 184-5h4c76 0 136 0 184 5 49 5 88 16 122 40 20 15 38 33 53 54 24 33 35 73 40 121 5 48 5 108 5 184v4c0 76 0 136-5 184-5 49-16 88-40 122-15 20-33 38-53 53z m-308-17c79 0 135 0 179-5 44-5 71-14 92-29 15-11 28-24 39-39 15-21 24-48 29-92 5-44 5-100 5-179 0-79 0-135-5-179-5-43-14-71-29-92-11-15-24-28-39-39-21-15-48-24-92-29-44-5-100-5-179-5-79 0-135 0-179 5-43 5-71 14-92 29-15 11-28 24-39 39-15 21-24 49-29 92-5 44-5 100-5 179 0 35 0 66 1 94 20 0 34 1 47 3 103 16 183 96 199 199 2 13 3 28 3 47 28 1 59 1 94 1z m-306-186c-8-1-18-1-35-2 4 57 13 90 31 115 11 15 24 28 39 39 25 18 58 27 115 31-1-17-1-27-2-35-12-76-72-136-148-148z" horiz-adv-x="1000" />

<glyph glyph-name="document-add-4" unicode="&#xe859;" d="M531 433c0 18-14 32-31 32-17 0-31-14-31-32v-93h-94c-17 0-31-14-31-32 0-17 14-31 31-31h94v-94c0-17 14-31 31-31 17 0 31 14 31 31v94h94c17 0 31 14 31 31 0 18-14 32-31 32h-94v93z m277 319c-34 25-73 36-122 41-48 5-108 5-184 5h-2c-49 0-90 0-126-1-78-3-135-11-181-45-21-15-39-32-53-53-34-46-42-103-45-181-1-36-1-77-1-126v-86c0-76 0-136 5-184 5-48 16-88 41-121 14-21 32-38 53-53 33-25 73-36 121-41 48-5 108-5 184-5h4c76 0 136 0 184 5 49 5 88 16 122 41 20 15 38 32 53 53 24 33 35 73 40 121 5 48 5 108 5 184v88c0 76 0 136-5 184-5 48-16 88-40 121-15 21-33 38-53 53z m-308-17c79 0 135 0 179-4 44-5 71-14 92-29 15-11 28-24 39-40 15-21 24-48 29-91 5-44 5-100 5-179v-84c0-78 0-135-5-179-5-43-14-70-29-91-11-15-24-29-39-40-21-15-48-24-92-29-44-4-100-4-179-4-79 0-135 0-179 4-43 5-71 14-92 29-15 11-28 25-39 40-15 21-24 48-29 91-5 44-5 101-5 179v84c0 35 0 66 1 94 20 0 34 0 47 2 103 17 183 97 199 200 2 13 3 27 3 47 28 0 59 0 94 0z m-306-185c-8-1-18-2-35-2 4 57 13 89 31 114 11 16 24 29 39 40 25 18 58 27 115 31-1-17-1-27-2-36-12-75-72-135-148-147z" horiz-adv-x="1000" />

<glyph glyph-name="document-align-center-1" unicode="&#xe85a;" d="M385 350c0 17 14 31 32 31h166c18 0 32-14 32-31 0-17-14-31-32-31h-166c-18 0-32 14-32 31z m-83-167c0 18 14 32 31 32h334c17 0 31-14 31-32 0-17-14-31-31-31h-334c-17 0-31 14-31 31z m366 611c45-3 82-10 114-27 9-4 18-9 26-15 20-15 38-32 53-53 24-33 35-73 40-121 5-48 5-108 5-184v-88c0-76 0-136-5-184-5-48-16-88-40-121-15-21-33-38-53-53-34-25-73-36-122-41-48-5-108-5-184-5h-4c-76 0-136 0-184 5-48 5-88 16-121 41-21 15-39 32-53 53-25 33-36 73-41 121-5 48-5 108-5 185v87c0 76 0 136 5 184 5 48 16 88 41 121 14 21 32 38 53 53 15 11 32 20 50 26 30 11 65 15 106 18 41 2 91 2 150 2h2c68 0 123 0 167-4z m-5-62c-41 3-94 3-163 3-60 0-108 0-147-2-14-1-26-2-37-3 35-34 62-61 87-80 34-27 59-40 85-44 18-3 37-3 55 0 25 4 49 16 81 41 25 20 52 45 86 79-13 3-29 5-47 6z m110-32c-43-43-78-77-110-102-36-28-71-47-110-54-25-4-50-4-75 0-41 7-76 27-114 57-34 27-71 64-118 111-6-3-12-7-17-10-15-11-28-24-39-40-15-21-24-48-29-91-5-44-5-100-5-179v-84c0-78 0-135 5-179 5-43 14-70 29-91 11-15 24-29 39-40 21-15 49-24 92-29 44-4 100-4 179-4 79 0 135 0 179 4 44 5 71 14 92 29 15 11 28 25 39 40 15 21 24 48 29 91 5 44 5 101 5 179v84c0 79 0 135-5 179-5 43-14 70-29 91-10 15-23 27-37 38z" horiz-adv-x="1000" />

<glyph glyph-name="document-align-center-3" unicode="&#xe85b;" d="M333 548c-17 0-31-14-31-31 0-18 14-32 31-32h334c17 0 31 14 31 32 0 17-14 31-31 31h-334z m84-167c-18 0-32-14-32-31 0-17 14-31 32-31h166c18 0 32 14 32 31 0 17-14 31-32 31h-166z m-84-166c-17 0-31-14-31-32 0-17 14-31 31-31h334c17 0 31 14 31 31 0 18-14 32-31 32h-334z m353 578c-48 5-108 5-184 5h-4c-76 0-136 0-184-5-48-5-88-16-121-41-21-15-39-32-53-53-25-33-36-73-41-121-5-48-5-108-5-184v-87c0-77 0-137 5-185 5-48 16-88 41-121 14-21 32-38 53-53 33-25 73-36 121-41 48-5 108-5 184-5h4c76 0 136 0 184 5 49 5 88 16 122 41 20 15 38 32 53 53 24 33 35 73 40 121 5 48 5 108 5 184v88c0 76 0 136-5 184-5 48-16 88-40 121-15 21-33 38-53 53-34 25-73 36-122 41z m-457-91c21 15 49 24 92 29 44 4 100 4 179 4 79 0 135 0 179-4 44-5 71-14 92-29 15-11 28-24 39-40 15-21 24-48 29-91 5-44 5-100 5-179v-84c0-78 0-135-5-179-5-43-14-70-29-91-11-15-24-29-39-40-21-15-48-24-92-29-44-4-100-4-179-4-79 0-135 0-179 4-43 5-71 14-92 29-15 11-28 25-39 40-15 21-24 48-29 91-5 44-5 101-5 179v84c0 79 0 135 5 179 5 43 14 70 29 91 11 16 24 29 39 40z" horiz-adv-x="1000" />

<glyph glyph-name="document-align-center-4" unicode="&#xe85c;" d="M417 548c-18 0-32-14-32-31 0-18 14-32 32-32h166c18 0 32 14 32 32 0 17-14 31-32 31h-166z m-84-167c-17 0-31-14-31-31 0-17 14-31 31-31h334c17 0 31 14 31 31 0 17-14 31-31 31h-334z m353 370c-48 5-108 5-184 5h-4c-76 0-136 0-184-5-48-5-88-16-121-40-21-15-39-33-53-53-25-34-36-73-41-122-5-48-5-108-5-184v-4c0-76 0-136 5-184 5-48 16-88 41-121 14-21 32-39 53-54 33-24 73-35 121-40 48-5 108-5 184-5h3c48 0 89 0 125 1 78 3 136 11 182 44 20 15 38 33 53 54 33 46 41 103 44 181 1 36 1 77 1 126v2c0 76 0 136-5 184-5 49-16 88-40 122-15 20-33 38-53 53-34 24-73 35-122 40z m-457-91c21 15 49 24 92 29 44 5 100 5 179 5 79 0 135 0 179-5 44-5 71-14 92-29 15-11 28-24 39-39 15-21 24-48 29-92 5-44 5-100 5-179 0-35 0-66-1-94-19 0-34-1-47-3-103-16-183-96-199-199-2-13-3-27-3-47-28-1-59-1-94-1-79 0-135 0-179 5-43 5-71 14-92 29-15 11-28 24-39 39-15 21-24 49-29 92-5 44-5 100-5 179 0 79 0 135 5 179 5 44 14 71 29 92 11 15 24 28 39 39z m577-468c8 1 18 1 35 2-4-57-13-90-31-115-11-15-24-28-39-39-25-18-58-27-115-31 1 17 1 27 2 35 12 76 72 136 148 148z" horiz-adv-x="1000" />

<glyph glyph-name="document-align-center-5" unicode="&#xe85d;" d="M417 548c-18 0-32-14-32-31 0-18 14-32 32-32h166c18 0 32 14 32 32 0 17-14 31-32 31h-166z m-84-167c-17 0-31-14-31-31 0-17 14-31 31-31h334c17 0 31 14 31 31 0 17-14 31-31 31h-334z m353 412c-48 5-108 5-184 5h-4c-76 0-136 0-184-5-48-5-88-16-121-41-21-15-39-32-53-53-25-33-36-73-41-121-5-48-5-108-5-184v-87c0-77 0-137 5-185 5-48 16-88 41-121 14-21 32-38 53-53 33-25 73-36 121-41 48-5 108-5 184-5h3c48 0 89 0 125 1 78 3 136 11 182 45 20 15 38 32 53 53 33 46 41 103 44 181 1 36 1 78 1 126v86c0 76 0 136-5 184-5 48-16 88-40 121-15 21-33 38-53 53-34 25-73 36-122 41z m-457-91c21 15 49 24 92 29 44 4 100 4 179 4 79 0 135 0 179-4 44-5 71-14 92-29 15-11 28-24 39-40 15-21 24-48 29-91 5-44 5-100 5-179v-84c0-35 0-66-1-93-19-1-34-1-47-3-103-17-183-97-199-199-2-14-3-28-3-48-28 0-59 0-94 0-79 0-135 0-179 4-43 5-71 14-92 29-15 11-28 25-39 40-15 21-24 48-29 91-5 44-5 101-5 179v84c0 79 0 135 5 179 5 43 14 70 29 91 11 16 24 29 39 40z m577-552c8 1 18 2 35 2-4-57-13-89-31-114-11-15-24-29-39-40-25-18-58-27-115-31 1 17 1 27 2 36 12 76 72 135 148 147z" horiz-adv-x="1000" />

<glyph glyph-name="document-align-center-6" unicode="&#xe85e;" d="M417 548c-18 0-32-14-32-31 0-18 14-32 32-32h166c18 0 32 14 32 32 0 17-14 31-32 31h-166z m-84-167c-17 0-31-14-31-31 0-17 14-31 31-31h334c17 0 31 14 31 31 0 17-14 31-31 31h-334z m353 370c-48 5-108 5-184 5h-4c-76 0-136 0-184-5-48-5-88-16-121-40-21-15-39-33-53-53-25-34-36-73-41-122-5-48-5-108-5-184v-2c0-49 0-90 1-126 3-78 11-135 45-181 14-21 32-39 53-54 46-33 103-41 181-44 36-1 77-1 126-1h2c76 0 136 0 184 5 49 5 88 16 122 40 20 15 38 33 53 54 24 33 35 73 40 121 5 48 5 108 5 184v4c0 76 0 136-5 184-5 49-16 88-40 122-15 20-33 38-53 53-34 24-73 35-122 40z m-457-91c21 15 49 24 92 29 44 5 100 5 179 5 79 0 135 0 179-5 44-5 71-14 92-29 15-11 28-24 39-39 15-21 24-48 29-92 5-44 5-100 5-179 0-79 0-135-5-179-5-43-14-71-29-92-11-15-24-28-39-39-21-15-48-24-92-29-44-5-100-5-179-5-35 0-66 0-94 1 0 20-1 34-3 47-16 103-96 183-199 199-13 2-27 3-47 3-1 28-1 59-1 94 0 79 0 135 5 179 5 44 14 71 29 92 11 15 24 28 39 39z m113-616c1-8 1-18 2-35-57 4-90 13-115 31-15 11-28 24-39 39-18 25-27 58-31 115 17-1 27-1 35-2 76-12 136-72 148-148z" horiz-adv-x="1000" />

<glyph glyph-name="document-align-center-7" unicode="&#xe85f;" d="M417 548c-18 0-32-14-32-31 0-18 14-32 32-32h166c18 0 32 14 32 32 0 17-14 31-32 31h-166z m-84-167c-17 0-31-14-31-31 0-17 14-31 31-31h334c17 0 31 14 31 31 0 17-14 31-31 31h-334z m353 412c-48 5-108 5-184 5h-4c-76 0-136 0-184-5-48-5-88-16-121-41-21-15-39-32-53-53-25-33-36-73-41-121-5-48-5-108-5-184v-86c0-48 0-90 1-126 3-78 11-135 45-181 14-21 32-38 53-53 46-34 103-42 181-45 36-1 77-1 126-1h2c76 0 136 0 184 5 49 5 88 16 122 41 20 15 38 32 53 53 24 33 35 73 40 121 5 48 5 108 5 184v88c0 76 0 136-5 184-5 48-16 88-40 121-15 21-33 38-53 53-34 25-73 36-122 41z m-457-91c21 15 49 24 92 29 44 4 100 4 179 4 79 0 135 0 179-4 44-5 71-14 92-29 15-11 28-24 39-40 15-21 24-48 29-91 5-44 5-100 5-179v-84c0-78 0-135-5-179-5-43-14-70-29-91-11-15-24-29-39-40-21-15-48-24-92-29-44-4-100-4-179-4-35 0-66 0-94 0 0 20-1 34-3 48-16 102-96 182-199 199-13 2-27 2-47 3-1 27-1 58-1 93v84c0 79 0 135 5 179 5 43 14 70 29 91 11 16 24 29 39 40z m113-699c1-9 1-19 2-36-57 4-90 13-115 31-15 11-28 25-39 40-18 25-27 57-31 114 17 0 27-1 35-2 76-12 136-71 148-147z" horiz-adv-x="1000" />

<glyph glyph-name="document-align-left-1" unicode="&#xe860;" d="M302 350c0 17 14 31 31 31h125c18 0 32-14 32-31 0-17-14-31-32-31h-125c-17 0-31 14-31 31z m0-167c0 18 14 32 31 32h334c17 0 31-14 31-32 0-17-14-31-31-31h-334c-17 0-31 14-31 31z m366 611c45-3 82-10 114-27 9-4 18-9 26-15 20-15 38-32 53-53 24-33 35-73 40-121 5-48 5-108 5-184v-88c0-76 0-136-5-184-5-48-16-88-40-121-15-21-33-38-53-53-34-25-73-36-122-41-48-5-108-5-184-5h-4c-76 0-136 0-184 5-48 5-88 16-121 41-21 15-39 32-53 53-25 33-36 73-41 121-5 48-5 108-5 185v87c0 76 0 136 5 184 5 48 16 88 41 121 14 21 32 38 53 53 15 11 32 20 50 26 30 11 65 15 106 18 41 2 91 2 150 2h2c68 0 123 0 167-4z m-5-62c-41 3-94 3-163 3-60 0-108 0-147-2-14-1-26-2-37-3 35-34 62-61 87-80 34-27 59-40 85-44 18-3 37-3 55 0 25 4 49 16 81 41 25 20 52 45 86 79-13 3-29 5-47 6z m110-32c-43-43-78-77-110-102-36-28-71-47-110-54-25-4-50-4-75 0-41 7-76 27-114 57-34 27-71 64-118 111-6-3-12-7-17-10-15-11-28-24-39-40-15-21-24-48-29-91-5-44-5-100-5-179v-84c0-78 0-135 5-179 5-43 14-70 29-91 11-15 24-29 39-40 21-15 49-24 92-29 44-4 100-4 179-4 79 0 135 0 179 4 44 5 71 14 92 29 15 11 28 25 39 40 15 21 24 48 29 91 5 44 5 101 5 179v84c0 79 0 135-5 179-5 43-14 70-29 91-10 15-23 27-37 38z" horiz-adv-x="1000" />

<glyph glyph-name="document-align-left-4" unicode="&#xe861;" d="M333 465c-17 0-31-14-31-32 0-17 14-31 31-31h334c17 0 31 14 31 31 0 18-14 32-31 32h-334z m0-167c-17 0-31-14-31-31 0-18 14-32 31-32h125c18 0 32 14 32 32 0 17-14 31-32 31h-125z m0-167c-17 0-31-14-31-31 0-17 14-31 31-31h334c17 0 31 14 31 31 0 17-14 31-31 31h-334z m449 636c-32 17-69 24-114 27-44 4-99 4-167 4h-2c-59 0-109 0-150-2-41-3-76-7-106-18-18-6-35-15-50-26-21-15-39-32-53-53-25-33-36-73-41-121-5-48-5-108-5-184v-87c0-77 0-137 5-185 5-48 16-88 41-121 14-21 32-38 53-53 33-25 73-36 121-41 48-5 108-5 184-5h4c76 0 136 0 184 5 49 5 88 16 122 41 20 15 38 32 53 53 24 33 35 73 40 121 5 48 5 108 5 184v88c0 76 0 136-5 184-5 48-16 88-40 121-15 21-33 38-53 53-8 6-17 11-26 15z m-282-32c69 0 122 0 163-3 18-1 34-3 47-6-34-34-61-59-86-79-32-25-56-37-81-41-18-3-37-3-55 0-26 4-51 17-85 44-25 19-52 46-87 80 11 1 23 2 37 3 39 2 87 2 147 2z m163-137c32 25 67 59 110 102 14-11 27-23 37-38 15-21 24-48 29-91 5-44 5-100 5-179v-84c0-78 0-135-5-179-5-43-14-70-29-91-11-15-24-29-39-40-21-15-48-24-92-29-44-4-100-4-179-4-79 0-135 0-179 4-43 5-71 14-92 29-15 11-28 25-39 40-15 21-24 48-29 91-5 44-5 101-5 179v84c0 79 0 135 5 179 5 43 14 70 29 91 11 16 24 29 39 40 5 3 11 7 17 10 47-47 84-84 118-111 38-30 73-50 114-57 25-4 50-4 75 0 39 7 74 26 110 54z" horiz-adv-x="1000" />

</font>
</defs>
</svg>
